<?xml version="1.0" encoding="utf-8" standalone="no"?>
<!DOCTYPE svg PUBLIC "-//W3C//DTD SVG 1.1//EN"
  "http://www.w3.org/Graphics/SVG/1.1/DTD/svg11.dtd">
<svg xmlns:xlink="http://www.w3.org/1999/xlink" width="599.393438pt" height="215.984063pt" viewBox="0 0 599.393438 215.984063" xmlns="http://www.w3.org/2000/svg" version="1.1">
 <metadata>
  <rdf:RDF xmlns:dc="http://purl.org/dc/elements/1.1/" xmlns:cc="http://creativecommons.org/ns#" xmlns:rdf="http://www.w3.org/1999/02/22-rdf-syntax-ns#">
   <cc:Work>
    <dc:type rdf:resource="http://purl.org/dc/dcmitype/StillImage"/>
    <dc:date>2023-10-11T16:24:59.947416</dc:date>
    <dc:format>image/svg+xml</dc:format>
    <dc:creator>
     <cc:Agent>
      <dc:title>Matplotlib v3.8.0, https://matplotlib.org/</dc:title>
     </cc:Agent>
    </dc:creator>
   </cc:Work>
  </rdf:RDF>
 </metadata>
 <defs>
  <style type="text/css">*{stroke-linejoin: round; stroke-linecap: butt}</style>
 </defs>
 <g id="figure_1">
  <g id="patch_1">
   <path d="M 0 215.984063 
L 599.393438 215.984063 
L 599.393438 0 
L 0 0 
z
" style="fill: #ffffff"/>
  </g>
  <g id="axes_1">
   <g id="patch_2">
    <path d="M 34.193438 188.638125 
L 592.193437 188.638125 
L 592.193437 22.318125 
L 34.193438 22.318125 
z
" style="fill: #eaeaf2"/>
   </g>
   <g id="matplotlib.axis_1">
    <g id="xtick_1">
     <g id="line2d_1">
      <path d="M 105.640614 188.638125 
L 105.640614 22.318125 
" clip-path="url(#p7e73fb8288)" style="fill: none; stroke: #ffffff; stroke-linecap: round"/>
     </g>
     <g id="text_1">
      <!-- −10 -->
      <g style="fill: #262626" transform="translate(94.033036 206.496406) scale(0.11 -0.11)">
       <defs>
        <path id="DejaVuSans-2212" d="M 678 2272 
L 4684 2272 
L 4684 1741 
L 678 1741 
L 678 2272 
z
" transform="scale(0.015625)"/>
        <path id="DejaVuSans-31" d="M 794 531 
L 1825 531 
L 1825 4091 
L 703 3866 
L 703 4441 
L 1819 4666 
L 2450 4666 
L 2450 531 
L 3481 531 
L 3481 0 
L 794 0 
L 794 531 
z
" transform="scale(0.015625)"/>
        <path id="DejaVuSans-30" d="M 2034 4250 
Q 1547 4250 1301 3770 
Q 1056 3291 1056 2328 
Q 1056 1369 1301 889 
Q 1547 409 2034 409 
Q 2525 409 2770 889 
Q 3016 1369 3016 2328 
Q 3016 3291 2770 3770 
Q 2525 4250 2034 4250 
z
M 2034 4750 
Q 2819 4750 3233 4129 
Q 3647 3509 3647 2328 
Q 3647 1150 3233 529 
Q 2819 -91 2034 -91 
Q 1250 -91 836 529 
Q 422 1150 422 2328 
Q 422 3509 836 4129 
Q 1250 4750 2034 4750 
z
" transform="scale(0.015625)"/>
       </defs>
       <use xlink:href="#DejaVuSans-2212"/>
       <use xlink:href="#DejaVuSans-31" x="83.789062"/>
       <use xlink:href="#DejaVuSans-30" x="147.412109"/>
      </g>
     </g>
    </g>
    <g id="xtick_2">
     <g id="line2d_2">
      <path d="M 210.21601 188.638125 
L 210.21601 22.318125 
" clip-path="url(#p7e73fb8288)" style="fill: none; stroke: #ffffff; stroke-linecap: round"/>
     </g>
     <g id="text_2">
      <!-- −5 -->
      <g style="fill: #262626" transform="translate(202.107807 206.496406) scale(0.11 -0.11)">
       <defs>
        <path id="DejaVuSans-35" d="M 691 4666 
L 3169 4666 
L 3169 4134 
L 1269 4134 
L 1269 2991 
Q 1406 3038 1543 3061 
Q 1681 3084 1819 3084 
Q 2600 3084 3056 2656 
Q 3513 2228 3513 1497 
Q 3513 744 3044 326 
Q 2575 -91 1722 -91 
Q 1428 -91 1123 -41 
Q 819 9 494 109 
L 494 744 
Q 775 591 1075 516 
Q 1375 441 1709 441 
Q 2250 441 2565 725 
Q 2881 1009 2881 1497 
Q 2881 1984 2565 2268 
Q 2250 2553 1709 2553 
Q 1456 2553 1204 2497 
Q 953 2441 691 2322 
L 691 4666 
z
" transform="scale(0.015625)"/>
       </defs>
       <use xlink:href="#DejaVuSans-2212"/>
       <use xlink:href="#DejaVuSans-35" x="83.789062"/>
      </g>
     </g>
    </g>
    <g id="xtick_3">
     <g id="line2d_3">
      <path d="M 314.791405 188.638125 
L 314.791405 22.318125 
" clip-path="url(#p7e73fb8288)" style="fill: none; stroke: #ffffff; stroke-linecap: round"/>
     </g>
     <g id="text_3">
      <!-- 0 -->
      <g style="fill: #262626" transform="translate(311.29203 206.496406) scale(0.11 -0.11)">
       <use xlink:href="#DejaVuSans-30"/>
      </g>
     </g>
    </g>
    <g id="xtick_4">
     <g id="line2d_4">
      <path d="M 419.366801 188.638125 
L 419.366801 22.318125 
" clip-path="url(#p7e73fb8288)" style="fill: none; stroke: #ffffff; stroke-linecap: round"/>
     </g>
     <g id="text_4">
      <!-- 5 -->
      <g style="fill: #262626" transform="translate(415.867426 206.496406) scale(0.11 -0.11)">
       <use xlink:href="#DejaVuSans-35"/>
      </g>
     </g>
    </g>
    <g id="xtick_5">
     <g id="line2d_5">
      <path d="M 523.942196 188.638125 
L 523.942196 22.318125 
" clip-path="url(#p7e73fb8288)" style="fill: none; stroke: #ffffff; stroke-linecap: round"/>
     </g>
     <g id="text_5">
      <!-- 10 -->
      <g style="fill: #262626" transform="translate(516.943446 206.496406) scale(0.11 -0.11)">
       <use xlink:href="#DejaVuSans-31"/>
       <use xlink:href="#DejaVuSans-30" x="63.623047"/>
      </g>
     </g>
    </g>
   </g>
   <g id="matplotlib.axis_2">
    <g id="ytick_1">
     <g id="line2d_6">
      <path d="M 34.193438 188.638125 
L 592.193437 188.638125 
" clip-path="url(#p7e73fb8288)" style="fill: none; stroke: #ffffff; stroke-linecap: round"/>
     </g>
     <g id="text_6">
      <!-- 0.0 -->
      <g style="fill: #262626" transform="translate(7.2 192.817266) scale(0.11 -0.11)">
       <defs>
        <path id="DejaVuSans-2e" d="M 684 794 
L 1344 794 
L 1344 0 
L 684 0 
L 684 794 
z
" transform="scale(0.015625)"/>
       </defs>
       <use xlink:href="#DejaVuSans-30"/>
       <use xlink:href="#DejaVuSans-2e" x="63.623047"/>
       <use xlink:href="#DejaVuSans-30" x="95.410156"/>
      </g>
     </g>
    </g>
    <g id="ytick_2">
     <g id="line2d_7">
      <path d="M 34.193438 147.105665 
L 592.193437 147.105665 
" clip-path="url(#p7e73fb8288)" style="fill: none; stroke: #ffffff; stroke-linecap: round"/>
     </g>
     <g id="text_7">
      <!-- 0.1 -->
      <g style="fill: #262626" transform="translate(7.2 151.284806) scale(0.11 -0.11)">
       <use xlink:href="#DejaVuSans-30"/>
       <use xlink:href="#DejaVuSans-2e" x="63.623047"/>
       <use xlink:href="#DejaVuSans-31" x="95.410156"/>
      </g>
     </g>
    </g>
    <g id="ytick_3">
     <g id="line2d_8">
      <path d="M 34.193438 105.573205 
L 592.193437 105.573205 
" clip-path="url(#p7e73fb8288)" style="fill: none; stroke: #ffffff; stroke-linecap: round"/>
     </g>
     <g id="text_8">
      <!-- 0.2 -->
      <g style="fill: #262626" transform="translate(7.2 109.752346) scale(0.11 -0.11)">
       <defs>
        <path id="DejaVuSans-32" d="M 1228 531 
L 3431 531 
L 3431 0 
L 469 0 
L 469 531 
Q 828 903 1448 1529 
Q 2069 2156 2228 2338 
Q 2531 2678 2651 2914 
Q 2772 3150 2772 3378 
Q 2772 3750 2511 3984 
Q 2250 4219 1831 4219 
Q 1534 4219 1204 4116 
Q 875 4013 500 3803 
L 500 4441 
Q 881 4594 1212 4672 
Q 1544 4750 1819 4750 
Q 2544 4750 2975 4387 
Q 3406 4025 3406 3419 
Q 3406 3131 3298 2873 
Q 3191 2616 2906 2266 
Q 2828 2175 2409 1742 
Q 1991 1309 1228 531 
z
" transform="scale(0.015625)"/>
       </defs>
       <use xlink:href="#DejaVuSans-30"/>
       <use xlink:href="#DejaVuSans-2e" x="63.623047"/>
       <use xlink:href="#DejaVuSans-32" x="95.410156"/>
      </g>
     </g>
    </g>
    <g id="ytick_4">
     <g id="line2d_9">
      <path d="M 34.193438 64.040746 
L 592.193437 64.040746 
" clip-path="url(#p7e73fb8288)" style="fill: none; stroke: #ffffff; stroke-linecap: round"/>
     </g>
     <g id="text_9">
      <!-- 0.3 -->
      <g style="fill: #262626" transform="translate(7.2 68.219886) scale(0.11 -0.11)">
       <defs>
        <path id="DejaVuSans-33" d="M 2597 2516 
Q 3050 2419 3304 2112 
Q 3559 1806 3559 1356 
Q 3559 666 3084 287 
Q 2609 -91 1734 -91 
Q 1441 -91 1130 -33 
Q 819 25 488 141 
L 488 750 
Q 750 597 1062 519 
Q 1375 441 1716 441 
Q 2309 441 2620 675 
Q 2931 909 2931 1356 
Q 2931 1769 2642 2001 
Q 2353 2234 1838 2234 
L 1294 2234 
L 1294 2753 
L 1863 2753 
Q 2328 2753 2575 2939 
Q 2822 3125 2822 3475 
Q 2822 3834 2567 4026 
Q 2313 4219 1838 4219 
Q 1578 4219 1281 4162 
Q 984 4106 628 3988 
L 628 4550 
Q 988 4650 1302 4700 
Q 1616 4750 1894 4750 
Q 2613 4750 3031 4423 
Q 3450 4097 3450 3541 
Q 3450 3153 3228 2886 
Q 3006 2619 2597 2516 
z
" transform="scale(0.015625)"/>
       </defs>
       <use xlink:href="#DejaVuSans-30"/>
       <use xlink:href="#DejaVuSans-2e" x="63.623047"/>
       <use xlink:href="#DejaVuSans-33" x="95.410156"/>
      </g>
     </g>
    </g>
    <g id="ytick_5">
     <g id="line2d_10">
      <path d="M 34.193438 22.508286 
L 592.193437 22.508286 
" clip-path="url(#p7e73fb8288)" style="fill: none; stroke: #ffffff; stroke-linecap: round"/>
     </g>
     <g id="text_10">
      <!-- 0.4 -->
      <g style="fill: #262626" transform="translate(7.2 26.687426) scale(0.11 -0.11)">
       <defs>
        <path id="DejaVuSans-34" d="M 2419 4116 
L 825 1625 
L 2419 1625 
L 2419 4116 
z
M 2253 4666 
L 3047 4666 
L 3047 1625 
L 3713 1625 
L 3713 1100 
L 3047 1100 
L 3047 0 
L 2419 0 
L 2419 1100 
L 313 1100 
L 313 1709 
L 2253 4666 
z
" transform="scale(0.015625)"/>
       </defs>
       <use xlink:href="#DejaVuSans-30"/>
       <use xlink:href="#DejaVuSans-2e" x="63.623047"/>
       <use xlink:href="#DejaVuSans-34" x="95.410156"/>
      </g>
     </g>
    </g>
   </g>
   <g id="patch_3">
    <path d="M 59.557074 188.638125 
L 61.538607 188.638125 
L 61.538607 188.534376 
L 59.557074 188.534376 
z
" clip-path="url(#p7e73fb8288)" style="fill: #4c72b0; fill-opacity: 0.5; stroke: #4c72b0; stroke-linejoin: miter"/>
   </g>
   <g id="patch_4">
    <path d="M 61.538607 188.638125 
L 63.520139 188.638125 
L 63.520139 188.438818 
L 61.538607 188.438818 
z
" clip-path="url(#p7e73fb8288)" style="fill: #4c72b0; fill-opacity: 0.5; stroke: #4c72b0; stroke-linejoin: miter"/>
   </g>
   <g id="patch_5">
    <path d="M 63.520139 188.638125 
L 65.501672 188.638125 
L 65.501672 188.299576 
L 63.520139 188.299576 
z
" clip-path="url(#p7e73fb8288)" style="fill: #4c72b0; fill-opacity: 0.5; stroke: #4c72b0; stroke-linejoin: miter"/>
   </g>
   <g id="patch_6">
    <path d="M 65.501672 188.638125 
L 67.483205 188.638125 
L 67.483205 188.193097 
L 65.501672 188.193097 
z
" clip-path="url(#p7e73fb8288)" style="fill: #4c72b0; fill-opacity: 0.5; stroke: #4c72b0; stroke-linejoin: miter"/>
   </g>
   <g id="patch_7">
    <path d="M 67.483205 188.638125 
L 69.464737 188.638125 
L 69.464737 188.062046 
L 67.483205 188.062046 
z
" clip-path="url(#p7e73fb8288)" style="fill: #4c72b0; fill-opacity: 0.5; stroke: #4c72b0; stroke-linejoin: miter"/>
   </g>
   <g id="patch_8">
    <path d="M 69.464737 188.638125 
L 71.44627 188.638125 
L 71.44627 187.909152 
L 69.464737 187.909152 
z
" clip-path="url(#p7e73fb8288)" style="fill: #4c72b0; fill-opacity: 0.5; stroke: #4c72b0; stroke-linejoin: miter"/>
   </g>
   <g id="patch_9">
    <path d="M 71.44627 188.638125 
L 73.427803 188.638125 
L 73.427803 187.565143 
L 71.44627 187.565143 
z
" clip-path="url(#p7e73fb8288)" style="fill: #4c72b0; fill-opacity: 0.5; stroke: #4c72b0; stroke-linejoin: miter"/>
   </g>
   <g id="patch_10">
    <path d="M 73.427803 188.638125 
L 75.409355 188.638125 
L 75.409355 187.286673 
L 73.427803 187.286673 
z
" clip-path="url(#p7e73fb8288)" style="fill: #4c72b0; fill-opacity: 0.5; stroke: #4c72b0; stroke-linejoin: miter"/>
   </g>
   <g id="patch_11">
    <path d="M 75.409355 188.638125 
L 77.390888 188.638125 
L 77.390888 186.909887 
L 75.409355 186.909887 
z
" clip-path="url(#p7e73fb8288)" style="fill: #4c72b0; fill-opacity: 0.5; stroke: #4c72b0; stroke-linejoin: miter"/>
   </g>
   <g id="patch_12">
    <path d="M 77.390888 188.638125 
L 79.372421 188.638125 
L 79.372421 186.227328 
L 77.390888 186.227328 
z
" clip-path="url(#p7e73fb8288)" style="fill: #4c72b0; fill-opacity: 0.5; stroke: #4c72b0; stroke-linejoin: miter"/>
   </g>
   <g id="patch_13">
    <path d="M 79.372421 188.638125 
L 81.353953 188.638125 
L 81.353953 185.454672 
L 79.372421 185.454672 
z
" clip-path="url(#p7e73fb8288)" style="fill: #4c72b0; fill-opacity: 0.5; stroke: #4c72b0; stroke-linejoin: miter"/>
   </g>
   <g id="patch_14">
    <path d="M 81.353953 188.638125 
L 83.335486 188.638125 
L 83.335486 184.632871 
L 81.353953 184.632871 
z
" clip-path="url(#p7e73fb8288)" style="fill: #4c72b0; fill-opacity: 0.5; stroke: #4c72b0; stroke-linejoin: miter"/>
   </g>
   <g id="patch_15">
    <path d="M 83.335486 188.638125 
L 85.317019 188.638125 
L 85.317019 183.406996 
L 83.335486 183.406996 
z
" clip-path="url(#p7e73fb8288)" style="fill: #4c72b0; fill-opacity: 0.5; stroke: #4c72b0; stroke-linejoin: miter"/>
   </g>
   <g id="patch_16">
    <path d="M 85.317019 188.638125 
L 87.298551 188.638125 
L 87.298551 181.790698 
L 85.317019 181.790698 
z
" clip-path="url(#p7e73fb8288)" style="fill: #4c72b0; fill-opacity: 0.5; stroke: #4c72b0; stroke-linejoin: miter"/>
   </g>
   <g id="patch_17">
    <path d="M 87.298551 188.638125 
L 89.280084 188.638125 
L 89.280084 179.401743 
L 87.298551 179.401743 
z
" clip-path="url(#p7e73fb8288)" style="fill: #4c72b0; fill-opacity: 0.5; stroke: #4c72b0; stroke-linejoin: miter"/>
   </g>
   <g id="patch_18">
    <path d="M 89.280084 188.638125 
L 91.261617 188.638125 
L 91.261617 177.018248 
L 89.280084 177.018248 
z
" clip-path="url(#p7e73fb8288)" style="fill: #4c72b0; fill-opacity: 0.5; stroke: #4c72b0; stroke-linejoin: miter"/>
   </g>
   <g id="patch_19">
    <path d="M 91.261617 188.638125 
L 93.24315 188.638125 
L 93.24315 174.59653 
L 91.261617 174.59653 
z
" clip-path="url(#p7e73fb8288)" style="fill: #4c72b0; fill-opacity: 0.5; stroke: #4c72b0; stroke-linejoin: miter"/>
   </g>
   <g id="patch_20">
    <path d="M 93.24315 188.638125 
L 95.224682 188.638125 
L 95.224682 170.910714 
L 93.24315 170.910714 
z
" clip-path="url(#p7e73fb8288)" style="fill: #4c72b0; fill-opacity: 0.5; stroke: #4c72b0; stroke-linejoin: miter"/>
   </g>
   <g id="patch_21">
    <path d="M 95.224682 188.638125 
L 97.206215 188.638125 
L 97.206215 166.034516 
L 95.224682 166.034516 
z
" clip-path="url(#p7e73fb8288)" style="fill: #4c72b0; fill-opacity: 0.5; stroke: #4c72b0; stroke-linejoin: miter"/>
   </g>
   <g id="patch_22">
    <path d="M 97.206215 188.638125 
L 99.187748 188.638125 
L 99.187748 161.171969 
L 97.206215 161.171969 
z
" clip-path="url(#p7e73fb8288)" style="fill: #4c72b0; fill-opacity: 0.5; stroke: #4c72b0; stroke-linejoin: miter"/>
   </g>
   <g id="patch_23">
    <path d="M 99.187748 188.638125 
L 101.16928 188.638125 
L 101.16928 155.443937 
L 99.187748 155.443937 
z
" clip-path="url(#p7e73fb8288)" style="fill: #4c72b0; fill-opacity: 0.5; stroke: #4c72b0; stroke-linejoin: miter"/>
   </g>
   <g id="patch_24">
    <path d="M 101.16928 188.638125 
L 103.150833 188.638125 
L 103.150833 148.457672 
L 101.16928 148.457672 
z
" clip-path="url(#p7e73fb8288)" style="fill: #4c72b0; fill-opacity: 0.5; stroke: #4c72b0; stroke-linejoin: miter"/>
   </g>
   <g id="patch_25">
    <path d="M 103.150833 188.638125 
L 105.132366 188.638125 
L 105.132366 140.616035 
L 103.150833 140.616035 
z
" clip-path="url(#p7e73fb8288)" style="fill: #4c72b0; fill-opacity: 0.5; stroke: #4c72b0; stroke-linejoin: miter"/>
   </g>
   <g id="patch_26">
    <path d="M 105.132366 188.638125 
L 107.113898 188.638125 
L 107.113898 132.070402 
L 105.132366 132.070402 
z
" clip-path="url(#p7e73fb8288)" style="fill: #4c72b0; fill-opacity: 0.5; stroke: #4c72b0; stroke-linejoin: miter"/>
   </g>
   <g id="patch_27">
    <path d="M 107.113898 188.638125 
L 109.095431 188.638125 
L 109.095431 122.943229 
L 107.113898 122.943229 
z
" clip-path="url(#p7e73fb8288)" style="fill: #4c72b0; fill-opacity: 0.5; stroke: #4c72b0; stroke-linejoin: miter"/>
   </g>
   <g id="patch_28">
    <path d="M 109.095431 188.638125 
L 111.076964 188.638125 
L 111.076964 114.018093 
L 109.095431 114.018093 
z
" clip-path="url(#p7e73fb8288)" style="fill: #4c72b0; fill-opacity: 0.5; stroke: #4c72b0; stroke-linejoin: miter"/>
   </g>
   <g id="patch_29">
    <path d="M 111.076964 188.638125 
L 113.058496 188.638125 
L 113.058496 103.291003 
L 111.076964 103.291003 
z
" clip-path="url(#p7e73fb8288)" style="fill: #4c72b0; fill-opacity: 0.5; stroke: #4c72b0; stroke-linejoin: miter"/>
   </g>
   <g id="patch_30">
    <path d="M 113.058496 188.638125 
L 115.040029 188.638125 
L 115.040029 91.698428 
L 113.058496 91.698428 
z
" clip-path="url(#p7e73fb8288)" style="fill: #4c72b0; fill-opacity: 0.5; stroke: #4c72b0; stroke-linejoin: miter"/>
   </g>
   <g id="patch_31">
    <path d="M 115.040029 188.638125 
L 117.021562 188.638125 
L 117.021562 82.579446 
L 115.040029 82.579446 
z
" clip-path="url(#p7e73fb8288)" style="fill: #4c72b0; fill-opacity: 0.5; stroke: #4c72b0; stroke-linejoin: miter"/>
   </g>
   <g id="patch_32">
    <path d="M 117.021562 188.638125 
L 119.003094 188.638125 
L 119.003094 70.165071 
L 117.021562 70.165071 
z
" clip-path="url(#p7e73fb8288)" style="fill: #4c72b0; fill-opacity: 0.5; stroke: #4c72b0; stroke-linejoin: miter"/>
   </g>
   <g id="patch_33">
    <path d="M 119.003094 188.638125 
L 120.984627 188.638125 
L 120.984627 62.020782 
L 119.003094 62.020782 
z
" clip-path="url(#p7e73fb8288)" style="fill: #4c72b0; fill-opacity: 0.5; stroke: #4c72b0; stroke-linejoin: miter"/>
   </g>
   <g id="patch_34">
    <path d="M 120.984627 188.638125 
L 122.96616 188.638125 
L 122.96616 52.67792 
L 120.984627 52.67792 
z
" clip-path="url(#p7e73fb8288)" style="fill: #4c72b0; fill-opacity: 0.5; stroke: #4c72b0; stroke-linejoin: miter"/>
   </g>
   <g id="patch_35">
    <path d="M 122.96616 188.638125 
L 124.947692 188.638125 
L 124.947692 44.599157 
L 122.96616 44.599157 
z
" clip-path="url(#p7e73fb8288)" style="fill: #4c72b0; fill-opacity: 0.5; stroke: #4c72b0; stroke-linejoin: miter"/>
   </g>
   <g id="patch_36">
    <path d="M 124.947692 188.638125 
L 126.929225 188.638125 
L 126.929225 37.096473 
L 124.947692 37.096473 
z
" clip-path="url(#p7e73fb8288)" style="fill: #4c72b0; fill-opacity: 0.5; stroke: #4c72b0; stroke-linejoin: miter"/>
   </g>
   <g id="patch_37">
    <path d="M 126.929225 188.638125 
L 128.910758 188.638125 
L 128.910758 34.014039 
L 126.929225 34.014039 
z
" clip-path="url(#p7e73fb8288)" style="fill: #4c72b0; fill-opacity: 0.5; stroke: #4c72b0; stroke-linejoin: miter"/>
   </g>
   <g id="patch_38">
    <path d="M 128.910758 188.638125 
L 130.89231 188.638125 
L 130.89231 30.553693 
L 128.910758 30.553693 
z
" clip-path="url(#p7e73fb8288)" style="fill: #4c72b0; fill-opacity: 0.5; stroke: #4c72b0; stroke-linejoin: miter"/>
   </g>
   <g id="patch_39">
    <path d="M 130.89231 188.638125 
L 132.873843 188.638125 
L 132.873843 30.893381 
L 130.89231 30.893381 
z
" clip-path="url(#p7e73fb8288)" style="fill: #4c72b0; fill-opacity: 0.5; stroke: #4c72b0; stroke-linejoin: miter"/>
   </g>
   <g id="patch_40">
    <path d="M 132.873843 188.638125 
L 134.855376 188.638125 
L 134.855376 30.238125 
L 132.873843 30.238125 
z
" clip-path="url(#p7e73fb8288)" style="fill: #4c72b0; fill-opacity: 0.5; stroke: #4c72b0; stroke-linejoin: miter"/>
   </g>
   <g id="patch_41">
    <path d="M 134.855376 188.638125 
L 136.836909 188.638125 
L 136.836909 33.953974 
L 134.855376 33.953974 
z
" clip-path="url(#p7e73fb8288)" style="fill: #4c72b0; fill-opacity: 0.5; stroke: #4c72b0; stroke-linejoin: miter"/>
   </g>
   <g id="patch_42">
    <path d="M 136.836909 188.638125 
L 138.818441 188.638125 
L 138.818441 38.68547 
L 136.836909 38.68547 
z
" clip-path="url(#p7e73fb8288)" style="fill: #4c72b0; fill-opacity: 0.5; stroke: #4c72b0; stroke-linejoin: miter"/>
   </g>
   <g id="patch_43">
    <path d="M 138.818441 188.638125 
L 140.799974 188.638125 
L 140.799974 47.367615 
L 138.818441 47.367615 
z
" clip-path="url(#p7e73fb8288)" style="fill: #4c72b0; fill-opacity: 0.5; stroke: #4c72b0; stroke-linejoin: miter"/>
   </g>
   <g id="patch_44">
    <path d="M 140.799974 188.638125 
L 142.781507 188.638125 
L 142.781507 53.794586 
L 140.799974 53.794586 
z
" clip-path="url(#p7e73fb8288)" style="fill: #4c72b0; fill-opacity: 0.5; stroke: #4c72b0; stroke-linejoin: miter"/>
   </g>
   <g id="patch_45">
    <path d="M 142.781507 188.638125 
L 144.763039 188.638125 
L 144.763039 64.477993 
L 142.781507 64.477993 
z
" clip-path="url(#p7e73fb8288)" style="fill: #4c72b0; fill-opacity: 0.5; stroke: #4c72b0; stroke-linejoin: miter"/>
   </g>
   <g id="patch_46">
    <path d="M 144.763039 188.638125 
L 146.744572 188.638125 
L 146.744572 75.560013 
L 144.763039 75.560013 
z
" clip-path="url(#p7e73fb8288)" style="fill: #4c72b0; fill-opacity: 0.5; stroke: #4c72b0; stroke-linejoin: miter"/>
   </g>
   <g id="patch_47">
    <path d="M 146.744572 188.638125 
L 148.726105 188.638125 
L 148.726105 85.77382 
L 146.744572 85.77382 
z
" clip-path="url(#p7e73fb8288)" style="fill: #4c72b0; fill-opacity: 0.5; stroke: #4c72b0; stroke-linejoin: miter"/>
   </g>
   <g id="patch_48">
    <path d="M 148.726105 188.638125 
L 150.707637 188.638125 
L 150.707637 98.878944 
L 148.726105 98.878944 
z
" clip-path="url(#p7e73fb8288)" style="fill: #4c72b0; fill-opacity: 0.5; stroke: #4c72b0; stroke-linejoin: miter"/>
   </g>
   <g id="patch_49">
    <path d="M 150.707637 188.638125 
L 152.68918 188.638125 
L 152.68918 108.907496 
L 150.707637 108.907496 
z
" clip-path="url(#p7e73fb8288)" style="fill: #4c72b0; fill-opacity: 0.5; stroke: #4c72b0; stroke-linejoin: miter"/>
   </g>
   <g id="patch_50">
    <path d="M 152.68918 188.638125 
L 154.670713 188.638125 
L 154.670713 120.062832 
L 152.68918 120.062832 
z
" clip-path="url(#p7e73fb8288)" style="fill: #4c72b0; fill-opacity: 0.5; stroke: #4c72b0; stroke-linejoin: miter"/>
   </g>
   <g id="patch_51">
    <path d="M 154.670713 188.638125 
L 156.652245 188.638125 
L 156.652245 128.766818 
L 154.670713 128.766818 
z
" clip-path="url(#p7e73fb8288)" style="fill: #4c72b0; fill-opacity: 0.5; stroke: #4c72b0; stroke-linejoin: miter"/>
   </g>
   <g id="patch_52">
    <path d="M 156.652245 188.638125 
L 158.633778 188.638125 
L 158.633778 138.475531 
L 156.652245 138.475531 
z
" clip-path="url(#p7e73fb8288)" style="fill: #4c72b0; fill-opacity: 0.5; stroke: #4c72b0; stroke-linejoin: miter"/>
   </g>
   <g id="patch_53">
    <path d="M 158.633778 188.638125 
L 160.615311 188.638125 
L 160.615311 147.157676 
L 158.633778 147.157676 
z
" clip-path="url(#p7e73fb8288)" style="fill: #4c72b0; fill-opacity: 0.5; stroke: #4c72b0; stroke-linejoin: miter"/>
   </g>
   <g id="patch_54">
    <path d="M 160.615311 188.638125 
L 162.596843 188.638125 
L 162.596843 153.273401 
L 160.615311 153.273401 
z
" clip-path="url(#p7e73fb8288)" style="fill: #4c72b0; fill-opacity: 0.5; stroke: #4c72b0; stroke-linejoin: miter"/>
   </g>
   <g id="patch_55">
    <path d="M 162.596843 188.638125 
L 164.578376 188.638125 
L 164.578376 160.063493 
L 162.596843 160.063493 
z
" clip-path="url(#p7e73fb8288)" style="fill: #4c72b0; fill-opacity: 0.5; stroke: #4c72b0; stroke-linejoin: miter"/>
   </g>
   <g id="patch_56">
    <path d="M 164.578376 188.638125 
L 166.559919 188.638125 
L 166.559919 164.814221 
L 164.578376 164.814221 
z
" clip-path="url(#p7e73fb8288)" style="fill: #4c72b0; fill-opacity: 0.5; stroke: #4c72b0; stroke-linejoin: miter"/>
   </g>
   <g id="patch_57">
    <path d="M 166.559919 188.638125 
L 168.541452 188.638125 
L 168.541452 169.086918 
L 166.559919 169.086918 
z
" clip-path="url(#p7e73fb8288)" style="fill: #4c72b0; fill-opacity: 0.5; stroke: #4c72b0; stroke-linejoin: miter"/>
   </g>
   <g id="patch_58">
    <path d="M 168.541452 188.638125 
L 170.522984 188.638125 
L 170.522984 172.595269 
L 168.541452 172.595269 
z
" clip-path="url(#p7e73fb8288)" style="fill: #4c72b0; fill-opacity: 0.5; stroke: #4c72b0; stroke-linejoin: miter"/>
   </g>
   <g id="patch_59">
    <path d="M 170.522984 188.638125 
L 172.504517 188.638125 
L 172.504517 175.502968 
L 170.522984 175.502968 
z
" clip-path="url(#p7e73fb8288)" style="fill: #4c72b0; fill-opacity: 0.5; stroke: #4c72b0; stroke-linejoin: miter"/>
   </g>
   <g id="patch_60">
    <path d="M 172.504517 188.638125 
L 174.48605 188.638125 
L 174.48605 177.938337 
L 172.504517 177.938337 
z
" clip-path="url(#p7e73fb8288)" style="fill: #4c72b0; fill-opacity: 0.5; stroke: #4c72b0; stroke-linejoin: miter"/>
   </g>
   <g id="patch_61">
    <path d="M 174.48605 188.638125 
L 176.467582 188.638125 
L 176.467582 179.917757 
L 174.48605 179.917757 
z
" clip-path="url(#p7e73fb8288)" style="fill: #4c72b0; fill-opacity: 0.5; stroke: #4c72b0; stroke-linejoin: miter"/>
   </g>
   <g id="patch_62">
    <path d="M 176.467582 188.638125 
L 178.449115 188.638125 
L 178.449115 181.490372 
L 176.467582 181.490372 
z
" clip-path="url(#p7e73fb8288)" style="fill: #4c72b0; fill-opacity: 0.5; stroke: #4c72b0; stroke-linejoin: miter"/>
   </g>
   <g id="patch_63">
    <path d="M 178.449115 188.638125 
L 180.430658 188.638125 
L 180.430658 182.596147 
L 178.449115 182.596147 
z
" clip-path="url(#p7e73fb8288)" style="fill: #4c72b0; fill-opacity: 0.5; stroke: #4c72b0; stroke-linejoin: miter"/>
   </g>
   <g id="patch_64">
    <path d="M 180.430658 188.638125 
L 182.41219 188.638125 
L 182.41219 183.770117 
L 180.430658 183.770117 
z
" clip-path="url(#p7e73fb8288)" style="fill: #4c72b0; fill-opacity: 0.5; stroke: #4c72b0; stroke-linejoin: miter"/>
   </g>
   <g id="patch_65">
    <path d="M 182.41219 188.638125 
L 184.393723 188.638125 
L 184.393723 184.398071 
L 182.41219 184.398071 
z
" clip-path="url(#p7e73fb8288)" style="fill: #4c72b0; fill-opacity: 0.5; stroke: #4c72b0; stroke-linejoin: miter"/>
   </g>
   <g id="patch_66">
    <path d="M 184.393723 188.638125 
L 186.375256 188.638125 
L 186.375256 184.993262 
L 184.393723 184.993262 
z
" clip-path="url(#p7e73fb8288)" style="fill: #4c72b0; fill-opacity: 0.5; stroke: #4c72b0; stroke-linejoin: miter"/>
   </g>
   <g id="patch_67">
    <path d="M 186.375256 188.638125 
L 188.356788 188.638125 
L 188.356788 185.531118 
L 186.375256 185.531118 
z
" clip-path="url(#p7e73fb8288)" style="fill: #4c72b0; fill-opacity: 0.5; stroke: #4c72b0; stroke-linejoin: miter"/>
   </g>
   <g id="patch_68">
    <path d="M 188.356788 188.638125 
L 190.338321 188.638125 
L 190.338321 186.036212 
L 188.356788 186.036212 
z
" clip-path="url(#p7e73fb8288)" style="fill: #4c72b0; fill-opacity: 0.5; stroke: #4c72b0; stroke-linejoin: miter"/>
   </g>
   <g id="patch_69">
    <path d="M 190.338321 188.638125 
L 192.319854 188.638125 
L 192.319854 186.552226 
L 190.338321 186.552226 
z
" clip-path="url(#p7e73fb8288)" style="fill: #4c72b0; fill-opacity: 0.5; stroke: #4c72b0; stroke-linejoin: miter"/>
   </g>
   <g id="patch_70">
    <path d="M 192.319854 188.638125 
L 194.301396 188.638125 
L 194.301396 186.636873 
L 192.319854 186.636873 
z
" clip-path="url(#p7e73fb8288)" style="fill: #4c72b0; fill-opacity: 0.5; stroke: #4c72b0; stroke-linejoin: miter"/>
   </g>
   <g id="patch_71">
    <path d="M 194.301396 188.638125 
L 196.282929 188.638125 
L 196.282929 186.95357 
L 194.301396 186.95357 
z
" clip-path="url(#p7e73fb8288)" style="fill: #4c72b0; fill-opacity: 0.5; stroke: #4c72b0; stroke-linejoin: miter"/>
   </g>
   <g id="patch_72">
    <path d="M 196.282929 188.638125 
L 198.264462 188.638125 
L 198.264462 187.368566 
L 196.282929 187.368566 
z
" clip-path="url(#p7e73fb8288)" style="fill: #4c72b0; fill-opacity: 0.5; stroke: #4c72b0; stroke-linejoin: miter"/>
   </g>
   <g id="patch_73">
    <path d="M 198.264462 188.638125 
L 200.245994 188.638125 
L 200.245994 188.146683 
L 198.264462 188.146683 
z
" clip-path="url(#p7e73fb8288)" style="fill: #4c72b0; fill-opacity: 0.5; stroke: #4c72b0; stroke-linejoin: miter"/>
   </g>
   <g id="patch_74">
    <path d="M 200.245994 188.638125 
L 202.227527 188.638125 
L 202.227527 188.416976 
L 200.245994 188.416976 
z
" clip-path="url(#p7e73fb8288)" style="fill: #4c72b0; fill-opacity: 0.5; stroke: #4c72b0; stroke-linejoin: miter"/>
   </g>
   <g id="patch_75">
    <path d="M 202.227527 188.638125 
L 204.20906 188.638125 
L 204.20906 188.452469 
L 202.227527 188.452469 
z
" clip-path="url(#p7e73fb8288)" style="fill: #4c72b0; fill-opacity: 0.5; stroke: #4c72b0; stroke-linejoin: miter"/>
   </g>
   <g id="patch_76">
    <path d="M 204.20906 188.638125 
L 206.190593 188.638125 
L 206.190593 188.427897 
L 204.20906 188.427897 
z
" clip-path="url(#p7e73fb8288)" style="fill: #4c72b0; fill-opacity: 0.5; stroke: #4c72b0; stroke-linejoin: miter"/>
   </g>
   <g id="patch_77">
    <path d="M 206.190593 188.638125 
L 208.172135 188.638125 
L 208.172135 188.406056 
L 206.190593 188.406056 
z
" clip-path="url(#p7e73fb8288)" style="fill: #4c72b0; fill-opacity: 0.5; stroke: #4c72b0; stroke-linejoin: miter"/>
   </g>
   <g id="patch_78">
    <path d="M 208.172135 188.638125 
L 210.153668 188.638125 
L 210.153668 188.406055 
L 208.172135 188.406055 
z
" clip-path="url(#p7e73fb8288)" style="fill: #4c72b0; fill-opacity: 0.5; stroke: #4c72b0; stroke-linejoin: miter"/>
   </g>
   <g id="patch_79">
    <path d="M 210.153668 188.638125 
L 212.135201 188.638125 
L 212.135201 188.419706 
L 210.153668 188.419706 
z
" clip-path="url(#p7e73fb8288)" style="fill: #4c72b0; fill-opacity: 0.5; stroke: #4c72b0; stroke-linejoin: miter"/>
   </g>
   <g id="patch_80">
    <path d="M 212.135201 188.638125 
L 214.116733 188.638125 
L 214.116733 188.283195 
L 212.135201 188.283195 
z
" clip-path="url(#p7e73fb8288)" style="fill: #4c72b0; fill-opacity: 0.5; stroke: #4c72b0; stroke-linejoin: miter"/>
   </g>
   <g id="patch_81">
    <path d="M 214.116733 188.638125 
L 216.098266 188.638125 
L 216.098266 187.911883 
L 214.116733 187.911883 
z
" clip-path="url(#p7e73fb8288)" style="fill: #4c72b0; fill-opacity: 0.5; stroke: #4c72b0; stroke-linejoin: miter"/>
   </g>
   <g id="patch_82">
    <path d="M 216.098266 188.638125 
L 218.079799 188.638125 
L 218.079799 187.898232 
L 216.098266 187.898232 
z
" clip-path="url(#p7e73fb8288)" style="fill: #4c72b0; fill-opacity: 0.5; stroke: #4c72b0; stroke-linejoin: miter"/>
   </g>
   <g id="patch_83">
    <path d="M 218.079799 188.638125 
L 220.061331 188.638125 
L 220.061331 187.870929 
L 218.079799 187.870929 
z
" clip-path="url(#p7e73fb8288)" style="fill: #4c72b0; fill-opacity: 0.5; stroke: #4c72b0; stroke-linejoin: miter"/>
   </g>
   <g id="patch_84">
    <path d="M 220.061331 188.638125 
L 222.042874 188.638125 
L 222.042874 187.701659 
L 220.061331 187.701659 
z
" clip-path="url(#p7e73fb8288)" style="fill: #4c72b0; fill-opacity: 0.5; stroke: #4c72b0; stroke-linejoin: miter"/>
   </g>
   <g id="patch_85">
    <path d="M 222.042874 188.638125 
L 224.024407 188.638125 
L 224.024407 187.827245 
L 222.042874 187.827245 
z
" clip-path="url(#p7e73fb8288)" style="fill: #4c72b0; fill-opacity: 0.5; stroke: #4c72b0; stroke-linejoin: miter"/>
   </g>
   <g id="patch_86">
    <path d="M 224.024407 188.638125 
L 226.005939 188.638125 
L 226.005939 187.720766 
L 224.024407 187.720766 
z
" clip-path="url(#p7e73fb8288)" style="fill: #4c72b0; fill-opacity: 0.5; stroke: #4c72b0; stroke-linejoin: miter"/>
   </g>
   <g id="patch_87">
    <path d="M 226.005939 188.638125 
L 227.987472 188.638125 
L 227.987472 187.622478 
L 226.005939 187.622478 
z
" clip-path="url(#p7e73fb8288)" style="fill: #4c72b0; fill-opacity: 0.5; stroke: #4c72b0; stroke-linejoin: miter"/>
   </g>
   <g id="patch_88">
    <path d="M 227.987472 188.638125 
L 229.969005 188.638125 
L 229.969005 187.341264 
L 227.987472 187.341264 
z
" clip-path="url(#p7e73fb8288)" style="fill: #4c72b0; fill-opacity: 0.5; stroke: #4c72b0; stroke-linejoin: miter"/>
   </g>
   <g id="patch_89">
    <path d="M 229.969005 188.638125 
L 231.950537 188.638125 
L 231.950537 187.171989 
L 229.969005 187.171989 
z
" clip-path="url(#p7e73fb8288)" style="fill: #4c72b0; fill-opacity: 0.5; stroke: #4c72b0; stroke-linejoin: miter"/>
   </g>
   <g id="patch_90">
    <path d="M 231.950537 188.638125 
L 233.932075 188.638125 
L 233.932075 187.204756 
L 231.950537 187.204756 
z
" clip-path="url(#p7e73fb8288)" style="fill: #4c72b0; fill-opacity: 0.5; stroke: #4c72b0; stroke-linejoin: miter"/>
   </g>
   <g id="patch_91">
    <path d="M 233.932075 188.638125 
L 235.913608 188.638125 
L 235.913608 187.171989 
L 233.932075 187.171989 
z
" clip-path="url(#p7e73fb8288)" style="fill: #4c72b0; fill-opacity: 0.5; stroke: #4c72b0; stroke-linejoin: miter"/>
   </g>
   <g id="patch_92">
    <path d="M 235.913608 188.638125 
L 237.89514 188.638125 
L 237.89514 186.59591 
L 235.913608 186.59591 
z
" clip-path="url(#p7e73fb8288)" style="fill: #4c72b0; fill-opacity: 0.5; stroke: #4c72b0; stroke-linejoin: miter"/>
   </g>
   <g id="patch_93">
    <path d="M 237.89514 188.638125 
L 239.876678 188.638125 
L 239.876678 186.197302 
L 237.89514 186.197302 
z
" clip-path="url(#p7e73fb8288)" style="fill: #4c72b0; fill-opacity: 0.5; stroke: #4c72b0; stroke-linejoin: miter"/>
   </g>
   <g id="patch_94">
    <path d="M 239.876678 188.638125 
L 241.858211 188.638125 
L 241.858211 186.426635 
L 239.876678 186.426635 
z
" clip-path="url(#p7e73fb8288)" style="fill: #4c72b0; fill-opacity: 0.5; stroke: #4c72b0; stroke-linejoin: miter"/>
   </g>
   <g id="patch_95">
    <path d="M 241.858211 188.638125 
L 243.839744 188.638125 
L 243.839744 186.287393 
L 241.858211 186.287393 
z
" clip-path="url(#p7e73fb8288)" style="fill: #4c72b0; fill-opacity: 0.5; stroke: #4c72b0; stroke-linejoin: miter"/>
   </g>
   <g id="patch_96">
    <path d="M 243.839744 188.638125 
L 245.821276 188.638125 
L 245.821276 186.077165 
L 243.839744 186.077165 
z
" clip-path="url(#p7e73fb8288)" style="fill: #4c72b0; fill-opacity: 0.5; stroke: #4c72b0; stroke-linejoin: miter"/>
   </g>
   <g id="patch_97">
    <path d="M 245.821276 188.638125 
L 247.802814 188.638125 
L 247.802814 185.050606 
L 245.821276 185.050606 
z
" clip-path="url(#p7e73fb8288)" style="fill: #4c72b0; fill-opacity: 0.5; stroke: #4c72b0; stroke-linejoin: miter"/>
   </g>
   <g id="patch_98">
    <path d="M 247.802814 188.638125 
L 249.784347 188.638125 
L 249.784347 185.206221 
L 247.802814 185.206221 
z
" clip-path="url(#p7e73fb8288)" style="fill: #4c72b0; fill-opacity: 0.5; stroke: #4c72b0; stroke-linejoin: miter"/>
   </g>
   <g id="patch_99">
    <path d="M 249.784347 188.638125 
L 251.765879 188.638125 
L 251.765879 184.922276 
L 249.784347 184.922276 
z
" clip-path="url(#p7e73fb8288)" style="fill: #4c72b0; fill-opacity: 0.5; stroke: #4c72b0; stroke-linejoin: miter"/>
   </g>
   <g id="patch_100">
    <path d="M 251.765879 188.638125 
L 253.747417 188.638125 
L 253.747417 185.443759 
L 251.765879 185.443759 
z
" clip-path="url(#p7e73fb8288)" style="fill: #4c72b0; fill-opacity: 0.5; stroke: #4c72b0; stroke-linejoin: miter"/>
   </g>
   <g id="patch_101">
    <path d="M 253.747417 188.638125 
L 255.72895 188.638125 
L 255.72895 184.50182 
L 253.747417 184.50182 
z
" clip-path="url(#p7e73fb8288)" style="fill: #4c72b0; fill-opacity: 0.5; stroke: #4c72b0; stroke-linejoin: miter"/>
   </g>
   <g id="patch_102">
    <path d="M 255.72895 188.638125 
L 257.710482 188.638125 
L 257.710482 185.042407 
L 255.72895 185.042407 
z
" clip-path="url(#p7e73fb8288)" style="fill: #4c72b0; fill-opacity: 0.5; stroke: #4c72b0; stroke-linejoin: miter"/>
   </g>
   <g id="patch_103">
    <path d="M 257.710482 188.638125 
L 259.692015 188.638125 
L 259.692015 184.957769 
L 257.710482 184.957769 
z
" clip-path="url(#p7e73fb8288)" style="fill: #4c72b0; fill-opacity: 0.5; stroke: #4c72b0; stroke-linejoin: miter"/>
   </g>
   <g id="patch_104">
    <path d="M 259.692015 188.638125 
L 261.673553 188.638125 
L 261.673553 184.414463 
L 259.692015 184.414463 
z
" clip-path="url(#p7e73fb8288)" style="fill: #4c72b0; fill-opacity: 0.5; stroke: #4c72b0; stroke-linejoin: miter"/>
   </g>
   <g id="patch_105">
    <path d="M 261.673553 188.638125 
L 263.655085 188.638125 
L 263.655085 183.660908 
L 261.673553 183.660908 
z
" clip-path="url(#p7e73fb8288)" style="fill: #4c72b0; fill-opacity: 0.5; stroke: #4c72b0; stroke-linejoin: miter"/>
   </g>
   <g id="patch_106">
    <path d="M 263.655085 188.638125 
L 265.636618 188.638125 
L 265.636618 182.705326 
L 263.655085 182.705326 
z
" clip-path="url(#p7e73fb8288)" style="fill: #4c72b0; fill-opacity: 0.5; stroke: #4c72b0; stroke-linejoin: miter"/>
   </g>
   <g id="patch_107">
    <path d="M 265.636618 188.638125 
L 267.618156 188.638125 
L 267.618156 184.01585 
L 265.636618 184.01585 
z
" clip-path="url(#p7e73fb8288)" style="fill: #4c72b0; fill-opacity: 0.5; stroke: #4c72b0; stroke-linejoin: miter"/>
   </g>
   <g id="patch_108">
    <path d="M 267.618156 188.638125 
L 269.599688 188.638125 
L 269.599688 183.663638 
L 267.618156 183.663638 
z
" clip-path="url(#p7e73fb8288)" style="fill: #4c72b0; fill-opacity: 0.5; stroke: #4c72b0; stroke-linejoin: miter"/>
   </g>
   <g id="patch_109">
    <path d="M 269.599688 188.638125 
L 271.581221 188.638125 
L 271.581221 183.781038 
L 269.599688 183.781038 
z
" clip-path="url(#p7e73fb8288)" style="fill: #4c72b0; fill-opacity: 0.5; stroke: #4c72b0; stroke-linejoin: miter"/>
   </g>
   <g id="patch_110">
    <path d="M 271.581221 188.638125 
L 273.562756 188.638125 
L 273.562756 181.034432 
L 271.581221 181.034432 
z
" clip-path="url(#p7e73fb8288)" style="fill: #4c72b0; fill-opacity: 0.5; stroke: #4c72b0; stroke-linejoin: miter"/>
   </g>
   <g id="patch_111">
    <path d="M 273.562756 188.638125 
L 275.544289 188.638125 
L 275.544289 182.620689 
L 273.562756 182.620689 
z
" clip-path="url(#p7e73fb8288)" style="fill: #4c72b0; fill-opacity: 0.5; stroke: #4c72b0; stroke-linejoin: miter"/>
   </g>
   <g id="patch_112">
    <path d="M 275.544289 188.638125 
L 277.525824 188.638125 
L 277.525824 182.921022 
L 275.544289 182.921022 
z
" clip-path="url(#p7e73fb8288)" style="fill: #4c72b0; fill-opacity: 0.5; stroke: #4c72b0; stroke-linejoin: miter"/>
   </g>
   <g id="patch_113">
    <path d="M 277.525824 188.638125 
L 279.507357 188.638125 
L 279.507357 181.749744 
L 277.525824 181.749744 
z
" clip-path="url(#p7e73fb8288)" style="fill: #4c72b0; fill-opacity: 0.5; stroke: #4c72b0; stroke-linejoin: miter"/>
   </g>
   <g id="patch_114">
    <path d="M 279.507357 188.638125 
L 281.488892 188.638125 
L 281.488892 181.173674 
L 279.507357 181.173674 
z
" clip-path="url(#p7e73fb8288)" style="fill: #4c72b0; fill-opacity: 0.5; stroke: #4c72b0; stroke-linejoin: miter"/>
   </g>
   <g id="patch_115">
    <path d="M 281.488892 188.638125 
L 283.470427 188.638125 
L 283.470427 182.598854 
L 281.488892 182.598854 
z
" clip-path="url(#p7e73fb8288)" style="fill: #4c72b0; fill-opacity: 0.5; stroke: #4c72b0; stroke-linejoin: miter"/>
   </g>
   <g id="patch_116">
    <path d="M 283.470427 188.638125 
L 285.45196 188.638125 
L 285.45196 181.602311 
L 283.470427 181.602311 
z
" clip-path="url(#p7e73fb8288)" style="fill: #4c72b0; fill-opacity: 0.5; stroke: #4c72b0; stroke-linejoin: miter"/>
   </g>
   <g id="patch_117">
    <path d="M 285.45196 188.638125 
L 287.433495 188.638125 
L 287.433495 181.236469 
L 285.45196 181.236469 
z
" clip-path="url(#p7e73fb8288)" style="fill: #4c72b0; fill-opacity: 0.5; stroke: #4c72b0; stroke-linejoin: miter"/>
   </g>
   <g id="patch_118">
    <path d="M 287.433495 188.638125 
L 289.415028 188.638125 
L 289.415028 180.515678 
L 287.433495 180.515678 
z
" clip-path="url(#p7e73fb8288)" style="fill: #4c72b0; fill-opacity: 0.5; stroke: #4c72b0; stroke-linejoin: miter"/>
   </g>
   <g id="patch_119">
    <path d="M 289.415028 188.638125 
L 291.396563 188.638125 
L 291.396563 182.039157 
L 289.415028 182.039157 
z
" clip-path="url(#p7e73fb8288)" style="fill: #4c72b0; fill-opacity: 0.5; stroke: #4c72b0; stroke-linejoin: miter"/>
   </g>
   <g id="patch_120">
    <path d="M 291.396563 188.638125 
L 293.378096 188.638125 
L 293.378096 177.334955 
L 291.396563 177.334955 
z
" clip-path="url(#p7e73fb8288)" style="fill: #4c72b0; fill-opacity: 0.5; stroke: #4c72b0; stroke-linejoin: miter"/>
   </g>
   <g id="patch_121">
    <path d="M 293.378096 188.638125 
L 295.359631 188.638125 
L 295.359631 180.728646 
L 293.378096 180.728646 
z
" clip-path="url(#p7e73fb8288)" style="fill: #4c72b0; fill-opacity: 0.5; stroke: #4c72b0; stroke-linejoin: miter"/>
   </g>
   <g id="patch_122">
    <path d="M 295.359631 188.638125 
L 297.341165 188.638125 
L 297.341165 179.854967 
L 295.359631 179.854967 
z
" clip-path="url(#p7e73fb8288)" style="fill: #4c72b0; fill-opacity: 0.5; stroke: #4c72b0; stroke-linejoin: miter"/>
   </g>
   <g id="patch_123">
    <path d="M 297.341165 188.638125 
L 299.322699 188.638125 
L 299.322699 179.871348 
L 297.341165 179.871348 
z
" clip-path="url(#p7e73fb8288)" style="fill: #4c72b0; fill-opacity: 0.5; stroke: #4c72b0; stroke-linejoin: miter"/>
   </g>
   <g id="patch_124">
    <path d="M 299.322699 188.638125 
L 301.304233 188.638125 
L 301.304233 177.198451 
L 299.322699 177.198451 
z
" clip-path="url(#p7e73fb8288)" style="fill: #4c72b0; fill-opacity: 0.5; stroke: #4c72b0; stroke-linejoin: miter"/>
   </g>
   <g id="patch_125">
    <path d="M 301.304233 188.638125 
L 303.285767 188.638125 
L 303.285767 180.578479 
L 301.304233 180.578479 
z
" clip-path="url(#p7e73fb8288)" style="fill: #4c72b0; fill-opacity: 0.5; stroke: #4c72b0; stroke-linejoin: miter"/>
   </g>
   <g id="patch_126">
    <path d="M 303.285767 188.638125 
L 305.267301 188.638125 
L 305.267301 179.483658 
L 303.285767 179.483658 
z
" clip-path="url(#p7e73fb8288)" style="fill: #4c72b0; fill-opacity: 0.5; stroke: #4c72b0; stroke-linejoin: miter"/>
   </g>
   <g id="patch_127">
    <path d="M 305.267301 188.638125 
L 307.248835 188.638125 
L 307.248835 179.901381 
L 305.267301 179.901381 
z
" clip-path="url(#p7e73fb8288)" style="fill: #4c72b0; fill-opacity: 0.5; stroke: #4c72b0; stroke-linejoin: miter"/>
   </g>
   <g id="patch_128">
    <path d="M 307.248835 188.638125 
L 309.23037 188.638125 
L 309.23037 179.142379 
L 307.248835 179.142379 
z
" clip-path="url(#p7e73fb8288)" style="fill: #4c72b0; fill-opacity: 0.5; stroke: #4c72b0; stroke-linejoin: miter"/>
   </g>
   <g id="patch_129">
    <path d="M 309.23037 188.638125 
L 311.211904 188.638125 
L 311.211904 178.2414 
L 309.23037 178.2414 
z
" clip-path="url(#p7e73fb8288)" style="fill: #4c72b0; fill-opacity: 0.5; stroke: #4c72b0; stroke-linejoin: miter"/>
   </g>
   <g id="patch_130">
    <path d="M 311.211904 188.638125 
L 313.193438 188.638125 
L 313.193438 179.005865 
L 311.211904 179.005865 
z
" clip-path="url(#p7e73fb8288)" style="fill: #4c72b0; fill-opacity: 0.5; stroke: #4c72b0; stroke-linejoin: miter"/>
   </g>
   <g id="patch_131">
    <path d="M 313.193438 188.638125 
L 315.174972 188.638125 
L 315.174972 173.821154 
L 313.193438 173.821154 
z
" clip-path="url(#p7e73fb8288)" style="fill: #4c72b0; fill-opacity: 0.5; stroke: #4c72b0; stroke-linejoin: miter"/>
   </g>
   <g id="patch_132">
    <path d="M 315.174972 188.638125 
L 317.156506 188.638125 
L 317.156506 178.70554 
L 315.174972 178.70554 
z
" clip-path="url(#p7e73fb8288)" style="fill: #4c72b0; fill-opacity: 0.5; stroke: #4c72b0; stroke-linejoin: miter"/>
   </g>
   <g id="patch_133">
    <path d="M 317.156506 188.638125 
L 319.13804 188.638125 
L 319.13804 178.208638 
L 317.156506 178.208638 
z
" clip-path="url(#p7e73fb8288)" style="fill: #4c72b0; fill-opacity: 0.5; stroke: #4c72b0; stroke-linejoin: miter"/>
   </g>
   <g id="patch_134">
    <path d="M 319.13804 188.638125 
L 321.119574 188.638125 
L 321.119574 178.932148 
L 319.13804 178.932148 
z
" clip-path="url(#p7e73fb8288)" style="fill: #4c72b0; fill-opacity: 0.5; stroke: #4c72b0; stroke-linejoin: miter"/>
   </g>
   <g id="patch_135">
    <path d="M 321.119574 188.638125 
L 323.101108 188.638125 
L 323.101108 178.47893 
L 321.119574 178.47893 
z
" clip-path="url(#p7e73fb8288)" style="fill: #4c72b0; fill-opacity: 0.5; stroke: #4c72b0; stroke-linejoin: miter"/>
   </g>
   <g id="patch_136">
    <path d="M 323.101108 188.638125 
L 325.082642 188.638125 
L 325.082642 179.800365 
L 323.101108 179.800365 
z
" clip-path="url(#p7e73fb8288)" style="fill: #4c72b0; fill-opacity: 0.5; stroke: #4c72b0; stroke-linejoin: miter"/>
   </g>
   <g id="patch_137">
    <path d="M 325.082642 188.638125 
L 327.064176 188.638125 
L 327.064176 179.571023 
L 325.082642 179.571023 
z
" clip-path="url(#p7e73fb8288)" style="fill: #4c72b0; fill-opacity: 0.5; stroke: #4c72b0; stroke-linejoin: miter"/>
   </g>
   <g id="patch_138">
    <path d="M 327.064176 188.638125 
L 329.04571 188.638125 
L 329.04571 179.024976 
L 327.064176 179.024976 
z
" clip-path="url(#p7e73fb8288)" style="fill: #4c72b0; fill-opacity: 0.5; stroke: #4c72b0; stroke-linejoin: miter"/>
   </g>
   <g id="patch_139">
    <path d="M 329.04571 188.638125 
L 331.027244 188.638125 
L 331.027244 178.121269 
L 329.04571 178.121269 
z
" clip-path="url(#p7e73fb8288)" style="fill: #4c72b0; fill-opacity: 0.5; stroke: #4c72b0; stroke-linejoin: miter"/>
   </g>
   <g id="patch_140">
    <path d="M 331.027244 188.638125 
L 333.008778 188.638125 
L 333.008778 179.508227 
L 331.027244 179.508227 
z
" clip-path="url(#p7e73fb8288)" style="fill: #4c72b0; fill-opacity: 0.5; stroke: #4c72b0; stroke-linejoin: miter"/>
   </g>
   <g id="patch_141">
    <path d="M 333.008778 188.638125 
L 334.990312 188.638125 
L 334.990312 180.556637 
L 333.008778 180.556637 
z
" clip-path="url(#p7e73fb8288)" style="fill: #4c72b0; fill-opacity: 0.5; stroke: #4c72b0; stroke-linejoin: miter"/>
   </g>
   <g id="patch_142">
    <path d="M 334.990312 188.638125 
L 336.971847 188.638125 
L 336.971847 180.966176 
L 334.990312 180.966176 
z
" clip-path="url(#p7e73fb8288)" style="fill: #4c72b0; fill-opacity: 0.5; stroke: #4c72b0; stroke-linejoin: miter"/>
   </g>
   <g id="patch_143">
    <path d="M 336.971847 188.638125 
L 338.95338 188.638125 
L 338.95338 176.930881 
L 336.971847 176.930881 
z
" clip-path="url(#p7e73fb8288)" style="fill: #4c72b0; fill-opacity: 0.5; stroke: #4c72b0; stroke-linejoin: miter"/>
   </g>
   <g id="patch_144">
    <path d="M 338.95338 188.638125 
L 340.934915 188.638125 
L 340.934915 179.298005 
L 338.95338 179.298005 
z
" clip-path="url(#p7e73fb8288)" style="fill: #4c72b0; fill-opacity: 0.5; stroke: #4c72b0; stroke-linejoin: miter"/>
   </g>
   <g id="patch_145">
    <path d="M 340.934915 188.638125 
L 342.916448 188.638125 
L 342.916448 181.777046 
L 340.934915 181.777046 
z
" clip-path="url(#p7e73fb8288)" style="fill: #4c72b0; fill-opacity: 0.5; stroke: #4c72b0; stroke-linejoin: miter"/>
   </g>
   <g id="patch_146">
    <path d="M 342.916448 188.638125 
L 344.897983 188.638125 
L 344.897983 182.052808 
L 342.916448 182.052808 
z
" clip-path="url(#p7e73fb8288)" style="fill: #4c72b0; fill-opacity: 0.5; stroke: #4c72b0; stroke-linejoin: miter"/>
   </g>
   <g id="patch_147">
    <path d="M 344.897983 188.638125 
L 346.879518 188.638125 
L 346.879518 181.635083 
L 344.897983 181.635083 
z
" clip-path="url(#p7e73fb8288)" style="fill: #4c72b0; fill-opacity: 0.5; stroke: #4c72b0; stroke-linejoin: miter"/>
   </g>
   <g id="patch_148">
    <path d="M 346.879518 188.638125 
L 348.861051 188.638125 
L 348.861051 181.181855 
L 346.879518 181.181855 
z
" clip-path="url(#p7e73fb8288)" style="fill: #4c72b0; fill-opacity: 0.5; stroke: #4c72b0; stroke-linejoin: miter"/>
   </g>
   <g id="patch_149">
    <path d="M 348.861051 188.638125 
L 350.842586 188.638125 
L 350.842586 180.88427 
L 348.861051 180.88427 
z
" clip-path="url(#p7e73fb8288)" style="fill: #4c72b0; fill-opacity: 0.5; stroke: #4c72b0; stroke-linejoin: miter"/>
   </g>
   <g id="patch_150">
    <path d="M 350.842586 188.638125 
L 352.824119 188.638125 
L 352.824119 182.830917 
L 350.842586 182.830917 
z
" clip-path="url(#p7e73fb8288)" style="fill: #4c72b0; fill-opacity: 0.5; stroke: #4c72b0; stroke-linejoin: miter"/>
   </g>
   <g id="patch_151">
    <path d="M 352.824119 188.638125 
L 354.805654 188.638125 
L 354.805654 181.979092 
L 352.824119 181.979092 
z
" clip-path="url(#p7e73fb8288)" style="fill: #4c72b0; fill-opacity: 0.5; stroke: #4c72b0; stroke-linejoin: miter"/>
   </g>
   <g id="patch_152">
    <path d="M 354.805654 188.638125 
L 356.787187 188.638125 
L 356.787187 182.688945 
L 354.805654 182.688945 
z
" clip-path="url(#p7e73fb8288)" style="fill: #4c72b0; fill-opacity: 0.5; stroke: #4c72b0; stroke-linejoin: miter"/>
   </g>
   <g id="patch_153">
    <path d="M 356.787187 188.638125 
L 358.768719 188.638125 
L 358.768719 181.70333 
L 356.787187 181.70333 
z
" clip-path="url(#p7e73fb8288)" style="fill: #4c72b0; fill-opacity: 0.5; stroke: #4c72b0; stroke-linejoin: miter"/>
   </g>
   <g id="patch_154">
    <path d="M 358.768719 188.638125 
L 360.750257 188.638125 
L 360.750257 183.497107 
L 358.768719 183.497107 
z
" clip-path="url(#p7e73fb8288)" style="fill: #4c72b0; fill-opacity: 0.5; stroke: #4c72b0; stroke-linejoin: miter"/>
   </g>
   <g id="patch_155">
    <path d="M 360.750257 188.638125 
L 362.73179 188.638125 
L 362.73179 183.161275 
L 360.750257 183.161275 
z
" clip-path="url(#p7e73fb8288)" style="fill: #4c72b0; fill-opacity: 0.5; stroke: #4c72b0; stroke-linejoin: miter"/>
   </g>
   <g id="patch_156">
    <path d="M 362.73179 188.638125 
L 364.713322 188.638125 
L 364.713322 182.647991 
L 362.73179 182.647991 
z
" clip-path="url(#p7e73fb8288)" style="fill: #4c72b0; fill-opacity: 0.5; stroke: #4c72b0; stroke-linejoin: miter"/>
   </g>
   <g id="patch_157">
    <path d="M 364.713322 188.638125 
L 366.69486 188.638125 
L 366.69486 184.075915 
L 364.713322 184.075915 
z
" clip-path="url(#p7e73fb8288)" style="fill: #4c72b0; fill-opacity: 0.5; stroke: #4c72b0; stroke-linejoin: miter"/>
   </g>
   <g id="patch_158">
    <path d="M 366.69486 188.638125 
L 368.676393 188.638125 
L 368.676393 183.284136 
L 366.69486 183.284136 
z
" clip-path="url(#p7e73fb8288)" style="fill: #4c72b0; fill-opacity: 0.5; stroke: #4c72b0; stroke-linejoin: miter"/>
   </g>
   <g id="patch_159">
    <path d="M 368.676393 188.638125 
L 370.657925 188.638125 
L 370.657925 184.837639 
L 368.676393 184.837639 
z
" clip-path="url(#p7e73fb8288)" style="fill: #4c72b0; fill-opacity: 0.5; stroke: #4c72b0; stroke-linejoin: miter"/>
   </g>
   <g id="patch_160">
    <path d="M 370.657925 188.638125 
L 372.639458 188.638125 
L 372.639458 184.769383 
L 370.657925 184.769383 
z
" clip-path="url(#p7e73fb8288)" style="fill: #4c72b0; fill-opacity: 0.5; stroke: #4c72b0; stroke-linejoin: miter"/>
   </g>
   <g id="patch_161">
    <path d="M 372.639458 188.638125 
L 374.620996 188.638125 
L 374.620996 184.436305 
L 372.639458 184.436305 
z
" clip-path="url(#p7e73fb8288)" style="fill: #4c72b0; fill-opacity: 0.5; stroke: #4c72b0; stroke-linejoin: miter"/>
   </g>
   <g id="patch_162">
    <path d="M 374.620996 188.638125 
L 376.602528 188.638125 
L 376.602528 184.873132 
L 374.620996 184.873132 
z
" clip-path="url(#p7e73fb8288)" style="fill: #4c72b0; fill-opacity: 0.5; stroke: #4c72b0; stroke-linejoin: miter"/>
   </g>
   <g id="patch_163">
    <path d="M 376.602528 188.638125 
L 378.584061 188.638125 
L 378.584061 185.342732 
L 376.602528 185.342732 
z
" clip-path="url(#p7e73fb8288)" style="fill: #4c72b0; fill-opacity: 0.5; stroke: #4c72b0; stroke-linejoin: miter"/>
   </g>
   <g id="patch_164">
    <path d="M 378.584061 188.638125 
L 380.565599 188.638125 
L 380.565599 185.236262 
L 378.584061 185.236262 
z
" clip-path="url(#p7e73fb8288)" style="fill: #4c72b0; fill-opacity: 0.5; stroke: #4c72b0; stroke-linejoin: miter"/>
   </g>
   <g id="patch_165">
    <path d="M 380.565599 188.638125 
L 382.547131 188.638125 
L 382.547131 185.694932 
L 380.565599 185.694932 
z
" clip-path="url(#p7e73fb8288)" style="fill: #4c72b0; fill-opacity: 0.5; stroke: #4c72b0; stroke-linejoin: miter"/>
   </g>
   <g id="patch_166">
    <path d="M 382.547131 188.638125 
L 384.528664 188.638125 
L 384.528664 186.219137 
L 382.547131 186.219137 
z
" clip-path="url(#p7e73fb8288)" style="fill: #4c72b0; fill-opacity: 0.5; stroke: #4c72b0; stroke-linejoin: miter"/>
   </g>
   <g id="patch_167">
    <path d="M 384.528664 188.638125 
L 386.510197 188.638125 
L 386.510197 185.78503 
L 384.528664 185.78503 
z
" clip-path="url(#p7e73fb8288)" style="fill: #4c72b0; fill-opacity: 0.5; stroke: #4c72b0; stroke-linejoin: miter"/>
   </g>
   <g id="patch_168">
    <path d="M 386.510197 188.638125 
L 388.491735 188.638125 
L 388.491735 186.443022 
L 386.510197 186.443022 
z
" clip-path="url(#p7e73fb8288)" style="fill: #4c72b0; fill-opacity: 0.5; stroke: #4c72b0; stroke-linejoin: miter"/>
   </g>
   <g id="patch_169">
    <path d="M 388.491735 188.638125 
L 390.473267 188.638125 
L 390.473267 186.418445 
L 388.491735 186.418445 
z
" clip-path="url(#p7e73fb8288)" style="fill: #4c72b0; fill-opacity: 0.5; stroke: #4c72b0; stroke-linejoin: miter"/>
   </g>
   <g id="patch_170">
    <path d="M 390.473267 188.638125 
L 392.4548 188.638125 
L 392.4548 186.412984 
L 390.473267 186.412984 
z
" clip-path="url(#p7e73fb8288)" style="fill: #4c72b0; fill-opacity: 0.5; stroke: #4c72b0; stroke-linejoin: miter"/>
   </g>
   <g id="patch_171">
    <path d="M 392.4548 188.638125 
L 394.436338 188.638125 
L 394.436338 186.904431 
L 392.4548 186.904431 
z
" clip-path="url(#p7e73fb8288)" style="fill: #4c72b0; fill-opacity: 0.5; stroke: #4c72b0; stroke-linejoin: miter"/>
   </g>
   <g id="patch_172">
    <path d="M 394.436338 188.638125 
L 396.41787 188.638125 
L 396.41787 186.666896 
L 394.436338 186.666896 
z
" clip-path="url(#p7e73fb8288)" style="fill: #4c72b0; fill-opacity: 0.5; stroke: #4c72b0; stroke-linejoin: miter"/>
   </g>
   <g id="patch_173">
    <path d="M 396.41787 188.638125 
L 398.399403 188.638125 
L 398.399403 185.127044 
L 396.41787 185.127044 
z
" clip-path="url(#p7e73fb8288)" style="fill: #4c72b0; fill-opacity: 0.5; stroke: #4c72b0; stroke-linejoin: miter"/>
   </g>
   <g id="patch_174">
    <path d="M 398.399403 188.638125 
L 400.380936 188.638125 
L 400.380936 183.677289 
L 398.399403 183.677289 
z
" clip-path="url(#p7e73fb8288)" style="fill: #4c72b0; fill-opacity: 0.5; stroke: #4c72b0; stroke-linejoin: miter"/>
   </g>
   <g id="patch_175">
    <path d="M 400.380936 188.638125 
L 402.362468 188.638125 
L 402.362468 179.169673 
L 400.380936 179.169673 
z
" clip-path="url(#p7e73fb8288)" style="fill: #4c72b0; fill-opacity: 0.5; stroke: #4c72b0; stroke-linejoin: miter"/>
   </g>
   <g id="patch_176">
    <path d="M 402.362468 188.638125 
L 404.344001 188.638125 
L 404.344001 161.745318 
L 402.362468 161.745318 
z
" clip-path="url(#p7e73fb8288)" style="fill: #4c72b0; fill-opacity: 0.5; stroke: #4c72b0; stroke-linejoin: miter"/>
   </g>
   <g id="patch_177">
    <path d="M 404.344001 188.638125 
L 406.325544 188.638125 
L 406.325544 161.622593 
L 404.344001 161.622593 
z
" clip-path="url(#p7e73fb8288)" style="fill: #4c72b0; fill-opacity: 0.5; stroke: #4c72b0; stroke-linejoin: miter"/>
   </g>
   <g id="patch_178">
    <path d="M 406.325544 188.638125 
L 408.307076 188.638125 
L 408.307076 172.248529 
L 406.325544 172.248529 
z
" clip-path="url(#p7e73fb8288)" style="fill: #4c72b0; fill-opacity: 0.5; stroke: #4c72b0; stroke-linejoin: miter"/>
   </g>
   <g id="patch_179">
    <path d="M 408.307076 188.638125 
L 410.288609 188.638125 
L 410.288609 158.837618 
L 408.307076 158.837618 
z
" clip-path="url(#p7e73fb8288)" style="fill: #4c72b0; fill-opacity: 0.5; stroke: #4c72b0; stroke-linejoin: miter"/>
   </g>
   <g id="patch_180">
    <path d="M 410.288609 188.638125 
L 412.270142 188.638125 
L 412.270142 152.989457 
L 410.288609 152.989457 
z
" clip-path="url(#p7e73fb8288)" style="fill: #4c72b0; fill-opacity: 0.5; stroke: #4c72b0; stroke-linejoin: miter"/>
   </g>
   <g id="patch_181">
    <path d="M 412.270142 188.638125 
L 414.251674 188.638125 
L 414.251674 159.118832 
L 412.270142 159.118832 
z
" clip-path="url(#p7e73fb8288)" style="fill: #4c72b0; fill-opacity: 0.5; stroke: #4c72b0; stroke-linejoin: miter"/>
   </g>
   <g id="patch_182">
    <path d="M 414.251674 188.638125 
L 416.233207 188.638125 
L 416.233207 172.679906 
L 414.251674 172.679906 
z
" clip-path="url(#p7e73fb8288)" style="fill: #4c72b0; fill-opacity: 0.5; stroke: #4c72b0; stroke-linejoin: miter"/>
   </g>
   <g id="patch_183">
    <path d="M 416.233207 188.638125 
L 418.21474 188.638125 
L 418.21474 177.605248 
L 416.233207 177.605248 
z
" clip-path="url(#p7e73fb8288)" style="fill: #4c72b0; fill-opacity: 0.5; stroke: #4c72b0; stroke-linejoin: miter"/>
   </g>
   <g id="patch_184">
    <path d="M 418.21474 188.638125 
L 420.196282 188.638125 
L 420.196282 173.616452 
L 418.21474 173.616452 
z
" clip-path="url(#p7e73fb8288)" style="fill: #4c72b0; fill-opacity: 0.5; stroke: #4c72b0; stroke-linejoin: miter"/>
   </g>
   <g id="patch_185">
    <path d="M 420.196282 188.638125 
L 422.177815 188.638125 
L 422.177815 172.477869 
L 420.196282 172.477869 
z
" clip-path="url(#p7e73fb8288)" style="fill: #4c72b0; fill-opacity: 0.5; stroke: #4c72b0; stroke-linejoin: miter"/>
   </g>
   <g id="patch_186">
    <path d="M 422.177815 188.638125 
L 424.159348 188.638125 
L 424.159348 173.580883 
L 422.177815 173.580883 
z
" clip-path="url(#p7e73fb8288)" style="fill: #4c72b0; fill-opacity: 0.5; stroke: #4c72b0; stroke-linejoin: miter"/>
   </g>
   <g id="patch_187">
    <path d="M 424.159348 188.638125 
L 426.140881 188.638125 
L 426.140881 176.240131 
L 424.159348 176.240131 
z
" clip-path="url(#p7e73fb8288)" style="fill: #4c72b0; fill-opacity: 0.5; stroke: #4c72b0; stroke-linejoin: miter"/>
   </g>
   <g id="patch_188">
    <path d="M 426.140881 188.638125 
L 428.122413 188.638125 
L 428.122413 179.704799 
L 426.140881 179.704799 
z
" clip-path="url(#p7e73fb8288)" style="fill: #4c72b0; fill-opacity: 0.5; stroke: #4c72b0; stroke-linejoin: miter"/>
   </g>
   <g id="patch_189">
    <path d="M 428.122413 188.638125 
L 430.103946 188.638125 
L 430.103946 182.598847 
L 428.122413 182.598847 
z
" clip-path="url(#p7e73fb8288)" style="fill: #4c72b0; fill-opacity: 0.5; stroke: #4c72b0; stroke-linejoin: miter"/>
   </g>
   <g id="patch_190">
    <path d="M 430.103946 188.638125 
L 432.085479 188.638125 
L 432.085479 186.792487 
L 430.103946 186.792487 
z
" clip-path="url(#p7e73fb8288)" style="fill: #4c72b0; fill-opacity: 0.5; stroke: #4c72b0; stroke-linejoin: miter"/>
   </g>
   <g id="patch_191">
    <path d="M 432.085479 188.638125 
L 434.067021 188.638125 
L 434.067021 187.010914 
L 432.085479 187.010914 
z
" clip-path="url(#p7e73fb8288)" style="fill: #4c72b0; fill-opacity: 0.5; stroke: #4c72b0; stroke-linejoin: miter"/>
   </g>
   <g id="patch_192">
    <path d="M 434.067021 188.638125 
L 436.048554 188.638125 
L 436.048554 186.765184 
L 434.067021 186.765184 
z
" clip-path="url(#p7e73fb8288)" style="fill: #4c72b0; fill-opacity: 0.5; stroke: #4c72b0; stroke-linejoin: miter"/>
   </g>
   <g id="patch_193">
    <path d="M 436.048554 188.638125 
L 438.030087 188.638125 
L 438.030087 186.544035 
L 436.048554 186.544035 
z
" clip-path="url(#p7e73fb8288)" style="fill: #4c72b0; fill-opacity: 0.5; stroke: #4c72b0; stroke-linejoin: miter"/>
   </g>
   <g id="patch_194">
    <path d="M 438.030087 188.638125 
L 440.011619 188.638125 
L 440.011619 186.664166 
L 438.030087 186.664166 
z
" clip-path="url(#p7e73fb8288)" style="fill: #4c72b0; fill-opacity: 0.5; stroke: #4c72b0; stroke-linejoin: miter"/>
   </g>
   <g id="patch_195">
    <path d="M 440.011619 188.638125 
L 441.993152 188.638125 
L 441.993152 186.563147 
L 440.011619 186.563147 
z
" clip-path="url(#p7e73fb8288)" style="fill: #4c72b0; fill-opacity: 0.5; stroke: #4c72b0; stroke-linejoin: miter"/>
   </g>
   <g id="patch_196">
    <path d="M 441.993152 188.638125 
L 443.974685 188.638125 
L 443.974685 186.623212 
L 441.993152 186.623212 
z
" clip-path="url(#p7e73fb8288)" style="fill: #4c72b0; fill-opacity: 0.5; stroke: #4c72b0; stroke-linejoin: miter"/>
   </g>
   <g id="patch_197">
    <path d="M 443.974685 188.638125 
L 445.956217 188.638125 
L 445.956217 186.655975 
L 443.974685 186.655975 
z
" clip-path="url(#p7e73fb8288)" style="fill: #4c72b0; fill-opacity: 0.5; stroke: #4c72b0; stroke-linejoin: miter"/>
   </g>
   <g id="patch_198">
    <path d="M 445.956217 188.638125 
L 447.93776 188.638125 
L 447.93776 186.882593 
L 445.956217 186.882593 
z
" clip-path="url(#p7e73fb8288)" style="fill: #4c72b0; fill-opacity: 0.5; stroke: #4c72b0; stroke-linejoin: miter"/>
   </g>
   <g id="patch_199">
    <path d="M 447.93776 188.638125 
L 449.919293 188.638125 
L 449.919293 187.013636 
L 447.93776 187.013636 
z
" clip-path="url(#p7e73fb8288)" style="fill: #4c72b0; fill-opacity: 0.5; stroke: #4c72b0; stroke-linejoin: miter"/>
   </g>
   <g id="patch_200">
    <path d="M 449.919293 188.638125 
L 451.900825 188.638125 
L 451.900825 187.193831 
L 449.919293 187.193831 
z
" clip-path="url(#p7e73fb8288)" style="fill: #4c72b0; fill-opacity: 0.5; stroke: #4c72b0; stroke-linejoin: miter"/>
   </g>
   <g id="patch_201">
    <path d="M 451.900825 188.638125 
L 453.882358 188.638125 
L 453.882358 187.384947 
L 451.900825 187.384947 
z
" clip-path="url(#p7e73fb8288)" style="fill: #4c72b0; fill-opacity: 0.5; stroke: #4c72b0; stroke-linejoin: miter"/>
   </g>
   <g id="patch_202">
    <path d="M 453.882358 188.638125 
L 455.863891 188.638125 
L 455.863891 187.395868 
L 453.882358 187.395868 
z
" clip-path="url(#p7e73fb8288)" style="fill: #4c72b0; fill-opacity: 0.5; stroke: #4c72b0; stroke-linejoin: miter"/>
   </g>
   <g id="patch_203">
    <path d="M 455.863891 188.638125 
L 457.845423 188.638125 
L 457.845423 187.53511 
L 455.863891 187.53511 
z
" clip-path="url(#p7e73fb8288)" style="fill: #4c72b0; fill-opacity: 0.5; stroke: #4c72b0; stroke-linejoin: miter"/>
   </g>
   <g id="patch_204">
    <path d="M 457.845423 188.638125 
L 459.826956 188.638125 
L 459.826956 187.772641 
L 457.845423 187.772641 
z
" clip-path="url(#p7e73fb8288)" style="fill: #4c72b0; fill-opacity: 0.5; stroke: #4c72b0; stroke-linejoin: miter"/>
   </g>
   <g id="patch_205">
    <path d="M 459.826956 188.638125 
L 461.808499 188.638125 
L 461.808499 187.816329 
L 459.826956 187.816329 
z
" clip-path="url(#p7e73fb8288)" style="fill: #4c72b0; fill-opacity: 0.5; stroke: #4c72b0; stroke-linejoin: miter"/>
   </g>
   <g id="patch_206">
    <path d="M 461.808499 188.638125 
L 463.790032 188.638125 
L 463.790032 187.947376 
L 461.808499 187.947376 
z
" clip-path="url(#p7e73fb8288)" style="fill: #4c72b0; fill-opacity: 0.5; stroke: #4c72b0; stroke-linejoin: miter"/>
   </g>
   <g id="patch_207">
    <path d="M 463.790032 188.638125 
L 465.771564 188.638125 
L 465.771564 187.974678 
L 463.790032 187.974678 
z
" clip-path="url(#p7e73fb8288)" style="fill: #4c72b0; fill-opacity: 0.5; stroke: #4c72b0; stroke-linejoin: miter"/>
   </g>
   <g id="patch_208">
    <path d="M 465.771564 188.638125 
L 467.753097 188.638125 
L 467.753097 188.141222 
L 465.771564 188.141222 
z
" clip-path="url(#p7e73fb8288)" style="fill: #4c72b0; fill-opacity: 0.5; stroke: #4c72b0; stroke-linejoin: miter"/>
   </g>
   <g id="patch_209">
    <path d="M 467.753097 188.638125 
L 469.73463 188.638125 
L 469.73463 188.11665 
L 467.753097 188.11665 
z
" clip-path="url(#p7e73fb8288)" style="fill: #4c72b0; fill-opacity: 0.5; stroke: #4c72b0; stroke-linejoin: miter"/>
   </g>
   <g id="patch_210">
    <path d="M 469.73463 188.638125 
L 471.716162 188.638125 
L 471.716162 188.23405 
L 469.73463 188.23405 
z
" clip-path="url(#p7e73fb8288)" style="fill: #4c72b0; fill-opacity: 0.5; stroke: #4c72b0; stroke-linejoin: miter"/>
   </g>
   <g id="patch_211">
    <path d="M 471.716162 188.638125 
L 473.697695 188.638125 
L 473.697695 188.310497 
L 471.716162 188.310497 
z
" clip-path="url(#p7e73fb8288)" style="fill: #4c72b0; fill-opacity: 0.5; stroke: #4c72b0; stroke-linejoin: miter"/>
   </g>
   <g id="patch_212">
    <path d="M 473.697695 188.638125 
L 475.679238 188.638125 
L 475.679238 188.299578 
L 473.697695 188.299578 
z
" clip-path="url(#p7e73fb8288)" style="fill: #4c72b0; fill-opacity: 0.5; stroke: #4c72b0; stroke-linejoin: miter"/>
   </g>
   <g id="patch_213">
    <path d="M 475.679238 188.638125 
L 477.66077 188.638125 
L 477.66077 188.359641 
L 475.679238 188.359641 
z
" clip-path="url(#p7e73fb8288)" style="fill: #4c72b0; fill-opacity: 0.5; stroke: #4c72b0; stroke-linejoin: miter"/>
   </g>
   <g id="patch_214">
    <path d="M 477.66077 188.638125 
L 479.642303 188.638125 
L 479.642303 188.408785 
L 477.66077 188.408785 
z
" clip-path="url(#p7e73fb8288)" style="fill: #4c72b0; fill-opacity: 0.5; stroke: #4c72b0; stroke-linejoin: miter"/>
   </g>
   <g id="patch_215">
    <path d="M 479.642303 188.638125 
L 481.623836 188.638125 
L 481.623836 188.403325 
L 479.642303 188.403325 
z
" clip-path="url(#p7e73fb8288)" style="fill: #4c72b0; fill-opacity: 0.5; stroke: #4c72b0; stroke-linejoin: miter"/>
   </g>
   <g id="patch_216">
    <path d="M 481.623836 188.638125 
L 483.605368 188.638125 
L 483.605368 188.419706 
L 481.623836 188.419706 
z
" clip-path="url(#p7e73fb8288)" style="fill: #4c72b0; fill-opacity: 0.5; stroke: #4c72b0; stroke-linejoin: miter"/>
   </g>
   <g id="patch_217">
    <path d="M 483.605368 188.638125 
L 485.586901 188.638125 
L 485.586901 188.471581 
L 483.605368 188.471581 
z
" clip-path="url(#p7e73fb8288)" style="fill: #4c72b0; fill-opacity: 0.5; stroke: #4c72b0; stroke-linejoin: miter"/>
   </g>
   <g id="patch_218">
    <path d="M 485.586901 188.638125 
L 487.568434 188.638125 
L 487.568434 188.534376 
L 485.586901 188.534376 
z
" clip-path="url(#p7e73fb8288)" style="fill: #4c72b0; fill-opacity: 0.5; stroke: #4c72b0; stroke-linejoin: miter"/>
   </g>
   <g id="patch_219">
    <path d="M 487.568434 188.638125 
L 489.549966 188.638125 
L 489.549966 188.504344 
L 487.568434 188.504344 
z
" clip-path="url(#p7e73fb8288)" style="fill: #4c72b0; fill-opacity: 0.5; stroke: #4c72b0; stroke-linejoin: miter"/>
   </g>
   <g id="patch_220">
    <path d="M 489.549966 188.638125 
L 491.531499 188.638125 
L 491.531499 188.507074 
L 489.549966 188.507074 
z
" clip-path="url(#p7e73fb8288)" style="fill: #4c72b0; fill-opacity: 0.5; stroke: #4c72b0; stroke-linejoin: miter"/>
   </g>
   <g id="patch_221">
    <path d="M 491.531499 188.638125 
L 493.513032 188.638125 
L 493.513032 188.526185 
L 491.531499 188.526185 
z
" clip-path="url(#p7e73fb8288)" style="fill: #4c72b0; fill-opacity: 0.5; stroke: #4c72b0; stroke-linejoin: miter"/>
   </g>
   <g id="patch_222">
    <path d="M 493.513032 188.638125 
L 495.494565 188.638125 
L 495.494565 188.553488 
L 493.513032 188.553488 
z
" clip-path="url(#p7e73fb8288)" style="fill: #4c72b0; fill-opacity: 0.5; stroke: #4c72b0; stroke-linejoin: miter"/>
   </g>
   <g id="patch_223">
    <path d="M 495.494565 188.638125 
L 497.476117 188.638125 
L 497.476117 188.56987 
L 495.494565 188.56987 
z
" clip-path="url(#p7e73fb8288)" style="fill: #4c72b0; fill-opacity: 0.5; stroke: #4c72b0; stroke-linejoin: miter"/>
   </g>
   <g id="patch_224">
    <path d="M 497.476117 188.638125 
L 499.45765 188.638125 
L 499.45765 188.526185 
L 497.476117 188.526185 
z
" clip-path="url(#p7e73fb8288)" style="fill: #4c72b0; fill-opacity: 0.5; stroke: #4c72b0; stroke-linejoin: miter"/>
   </g>
   <g id="patch_225">
    <path d="M 499.45765 188.638125 
L 501.439183 188.638125 
L 501.439183 188.58079 
L 499.45765 188.58079 
z
" clip-path="url(#p7e73fb8288)" style="fill: #4c72b0; fill-opacity: 0.5; stroke: #4c72b0; stroke-linejoin: miter"/>
   </g>
   <g id="patch_226">
    <path d="M 501.439183 188.638125 
L 503.420715 188.638125 
L 503.420715 188.572599 
L 501.439183 188.572599 
z
" clip-path="url(#p7e73fb8288)" style="fill: #4c72b0; fill-opacity: 0.5; stroke: #4c72b0; stroke-linejoin: miter"/>
   </g>
   <g id="patch_227">
    <path d="M 503.420715 188.638125 
L 505.402248 188.638125 
L 505.402248 188.597171 
L 503.420715 188.597171 
z
" clip-path="url(#p7e73fb8288)" style="fill: #4c72b0; fill-opacity: 0.5; stroke: #4c72b0; stroke-linejoin: miter"/>
   </g>
   <g id="patch_228">
    <path d="M 505.402248 188.638125 
L 507.383781 188.638125 
L 507.383781 188.58079 
L 505.402248 188.58079 
z
" clip-path="url(#p7e73fb8288)" style="fill: #4c72b0; fill-opacity: 0.5; stroke: #4c72b0; stroke-linejoin: miter"/>
   </g>
   <g id="patch_229">
    <path d="M 507.383781 188.638125 
L 509.365313 188.638125 
L 509.365313 188.58352 
L 507.383781 188.58352 
z
" clip-path="url(#p7e73fb8288)" style="fill: #4c72b0; fill-opacity: 0.5; stroke: #4c72b0; stroke-linejoin: miter"/>
   </g>
   <g id="patch_230">
    <path d="M 509.365313 188.638125 
L 511.346846 188.638125 
L 511.346846 188.597171 
L 509.365313 188.597171 
z
" clip-path="url(#p7e73fb8288)" style="fill: #4c72b0; fill-opacity: 0.5; stroke: #4c72b0; stroke-linejoin: miter"/>
   </g>
   <g id="patch_231">
    <path d="M 511.346846 188.638125 
L 513.328379 188.638125 
L 513.328379 188.594441 
L 511.346846 188.594441 
z
" clip-path="url(#p7e73fb8288)" style="fill: #4c72b0; fill-opacity: 0.5; stroke: #4c72b0; stroke-linejoin: miter"/>
   </g>
   <g id="patch_232">
    <path d="M 513.328379 188.638125 
L 515.309911 188.638125 
L 515.309911 188.594441 
L 513.328379 188.594441 
z
" clip-path="url(#p7e73fb8288)" style="fill: #4c72b0; fill-opacity: 0.5; stroke: #4c72b0; stroke-linejoin: miter"/>
   </g>
   <g id="patch_233">
    <path d="M 515.309911 188.638125 
L 517.291444 188.638125 
L 517.291444 188.58079 
L 515.309911 188.58079 
z
" clip-path="url(#p7e73fb8288)" style="fill: #4c72b0; fill-opacity: 0.5; stroke: #4c72b0; stroke-linejoin: miter"/>
   </g>
   <g id="patch_234">
    <path d="M 517.291444 188.638125 
L 519.272977 188.638125 
L 519.272977 188.619013 
L 517.291444 188.619013 
z
" clip-path="url(#p7e73fb8288)" style="fill: #4c72b0; fill-opacity: 0.5; stroke: #4c72b0; stroke-linejoin: miter"/>
   </g>
   <g id="patch_235">
    <path d="M 519.272977 188.638125 
L 521.254509 188.638125 
L 521.254509 188.613553 
L 519.272977 188.613553 
z
" clip-path="url(#p7e73fb8288)" style="fill: #4c72b0; fill-opacity: 0.5; stroke: #4c72b0; stroke-linejoin: miter"/>
   </g>
   <g id="patch_236">
    <path d="M 521.254509 188.638125 
L 523.236042 188.638125 
L 523.236042 188.616283 
L 521.254509 188.616283 
z
" clip-path="url(#p7e73fb8288)" style="fill: #4c72b0; fill-opacity: 0.5; stroke: #4c72b0; stroke-linejoin: miter"/>
   </g>
   <g id="patch_237">
    <path d="M 523.236042 188.638125 
L 525.217595 188.638125 
L 525.217595 188.610823 
L 523.236042 188.610823 
z
" clip-path="url(#p7e73fb8288)" style="fill: #4c72b0; fill-opacity: 0.5; stroke: #4c72b0; stroke-linejoin: miter"/>
   </g>
   <g id="patch_238">
    <path d="M 525.217595 188.638125 
L 527.199127 188.638125 
L 527.199127 188.608092 
L 525.217595 188.608092 
z
" clip-path="url(#p7e73fb8288)" style="fill: #4c72b0; fill-opacity: 0.5; stroke: #4c72b0; stroke-linejoin: miter"/>
   </g>
   <g id="patch_239">
    <path d="M 527.199127 188.638125 
L 529.18066 188.638125 
L 529.18066 188.624474 
L 527.199127 188.624474 
z
" clip-path="url(#p7e73fb8288)" style="fill: #4c72b0; fill-opacity: 0.5; stroke: #4c72b0; stroke-linejoin: miter"/>
   </g>
   <g id="patch_240">
    <path d="M 529.18066 188.638125 
L 531.162193 188.638125 
L 531.162193 188.627204 
L 529.18066 188.627204 
z
" clip-path="url(#p7e73fb8288)" style="fill: #4c72b0; fill-opacity: 0.5; stroke: #4c72b0; stroke-linejoin: miter"/>
   </g>
   <g id="patch_241">
    <path d="M 531.162193 188.638125 
L 533.143725 188.638125 
L 533.143725 188.627204 
L 531.162193 188.627204 
z
" clip-path="url(#p7e73fb8288)" style="fill: #4c72b0; fill-opacity: 0.5; stroke: #4c72b0; stroke-linejoin: miter"/>
   </g>
   <g id="patch_242">
    <path d="M 533.143725 188.638125 
L 535.125258 188.638125 
L 535.125258 188.632665 
L 533.143725 188.632665 
z
" clip-path="url(#p7e73fb8288)" style="fill: #4c72b0; fill-opacity: 0.5; stroke: #4c72b0; stroke-linejoin: miter"/>
   </g>
   <g id="patch_243">
    <path d="M 535.125258 188.638125 
L 537.106791 188.638125 
L 537.106791 188.627204 
L 535.125258 188.627204 
z
" clip-path="url(#p7e73fb8288)" style="fill: #4c72b0; fill-opacity: 0.5; stroke: #4c72b0; stroke-linejoin: miter"/>
   </g>
   <g id="patch_244">
    <path d="M 537.106791 188.638125 
L 539.088324 188.638125 
L 539.088324 188.632665 
L 537.106791 188.632665 
z
" clip-path="url(#p7e73fb8288)" style="fill: #4c72b0; fill-opacity: 0.5; stroke: #4c72b0; stroke-linejoin: miter"/>
   </g>
   <g id="patch_245">
    <path d="M 539.088324 188.638125 
L 541.069856 188.638125 
L 541.069856 188.621744 
L 539.088324 188.621744 
z
" clip-path="url(#p7e73fb8288)" style="fill: #4c72b0; fill-opacity: 0.5; stroke: #4c72b0; stroke-linejoin: miter"/>
   </g>
   <g id="patch_246">
    <path d="M 541.069856 188.638125 
L 543.051389 188.638125 
L 543.051389 188.635395 
L 541.069856 188.635395 
z
" clip-path="url(#p7e73fb8288)" style="fill: #4c72b0; fill-opacity: 0.5; stroke: #4c72b0; stroke-linejoin: miter"/>
   </g>
   <g id="patch_247">
    <path d="M 543.051389 188.638125 
L 545.032922 188.638125 
L 545.032922 188.638125 
L 543.051389 188.638125 
z
" clip-path="url(#p7e73fb8288)" style="fill: #4c72b0; fill-opacity: 0.5; stroke: #4c72b0; stroke-linejoin: miter"/>
   </g>
   <g id="patch_248">
    <path d="M 545.032922 188.638125 
L 547.014454 188.638125 
L 547.014454 188.635395 
L 545.032922 188.635395 
z
" clip-path="url(#p7e73fb8288)" style="fill: #4c72b0; fill-opacity: 0.5; stroke: #4c72b0; stroke-linejoin: miter"/>
   </g>
   <g id="patch_249">
    <path d="M 547.014454 188.638125 
L 548.995987 188.638125 
L 548.995987 188.635395 
L 547.014454 188.635395 
z
" clip-path="url(#p7e73fb8288)" style="fill: #4c72b0; fill-opacity: 0.5; stroke: #4c72b0; stroke-linejoin: miter"/>
   </g>
   <g id="patch_250">
    <path d="M 548.995987 188.638125 
L 550.97752 188.638125 
L 550.97752 188.632665 
L 548.995987 188.632665 
z
" clip-path="url(#p7e73fb8288)" style="fill: #4c72b0; fill-opacity: 0.5; stroke: #4c72b0; stroke-linejoin: miter"/>
   </g>
   <g id="patch_251">
    <path d="M 550.97752 188.638125 
L 552.959072 188.638125 
L 552.959072 188.632665 
L 550.97752 188.632665 
z
" clip-path="url(#p7e73fb8288)" style="fill: #4c72b0; fill-opacity: 0.5; stroke: #4c72b0; stroke-linejoin: miter"/>
   </g>
   <g id="patch_252">
    <path d="M 552.959072 188.638125 
L 554.940605 188.638125 
L 554.940605 188.632665 
L 552.959072 188.632665 
z
" clip-path="url(#p7e73fb8288)" style="fill: #4c72b0; fill-opacity: 0.5; stroke: #4c72b0; stroke-linejoin: miter"/>
   </g>
   <g id="patch_253">
    <path d="M 554.940605 188.638125 
L 556.922138 188.638125 
L 556.922138 188.635395 
L 554.940605 188.635395 
z
" clip-path="url(#p7e73fb8288)" style="fill: #4c72b0; fill-opacity: 0.5; stroke: #4c72b0; stroke-linejoin: miter"/>
   </g>
   <g id="patch_254">
    <path d="M 556.922138 188.638125 
L 558.90367 188.638125 
L 558.90367 188.629934 
L 556.922138 188.629934 
z
" clip-path="url(#p7e73fb8288)" style="fill: #4c72b0; fill-opacity: 0.5; stroke: #4c72b0; stroke-linejoin: miter"/>
   </g>
   <g id="patch_255">
    <path d="M 558.90367 188.638125 
L 560.885203 188.638125 
L 560.885203 188.635395 
L 558.90367 188.635395 
z
" clip-path="url(#p7e73fb8288)" style="fill: #4c72b0; fill-opacity: 0.5; stroke: #4c72b0; stroke-linejoin: miter"/>
   </g>
   <g id="patch_256">
    <path d="M 560.885203 188.638125 
L 562.866736 188.638125 
L 562.866736 188.638125 
L 560.885203 188.638125 
z
" clip-path="url(#p7e73fb8288)" style="fill: #4c72b0; fill-opacity: 0.5; stroke: #4c72b0; stroke-linejoin: miter"/>
   </g>
   <g id="patch_257">
    <path d="M 562.866736 188.638125 
L 564.848268 188.638125 
L 564.848268 188.635395 
L 562.866736 188.635395 
z
" clip-path="url(#p7e73fb8288)" style="fill: #4c72b0; fill-opacity: 0.5; stroke: #4c72b0; stroke-linejoin: miter"/>
   </g>
   <g id="patch_258">
    <path d="M 564.848268 188.638125 
L 566.829801 188.638125 
L 566.829801 188.635395 
L 564.848268 188.635395 
z
" clip-path="url(#p7e73fb8288)" style="fill: #4c72b0; fill-opacity: 0.5; stroke: #4c72b0; stroke-linejoin: miter"/>
   </g>
   <g id="patch_259">
    <path d="M 34.193438 188.638125 
L 34.193438 22.318125 
" style="fill: none; stroke: #ffffff; stroke-width: 1.25; stroke-linejoin: miter; stroke-linecap: square"/>
   </g>
   <g id="patch_260">
    <path d="M 592.193437 188.638125 
L 592.193437 22.318125 
" style="fill: none; stroke: #ffffff; stroke-width: 1.25; stroke-linejoin: miter; stroke-linecap: square"/>
   </g>
   <g id="patch_261">
    <path d="M 34.193437 188.638125 
L 592.193438 188.638125 
" style="fill: none; stroke: #ffffff; stroke-width: 1.25; stroke-linejoin: miter; stroke-linecap: square"/>
   </g>
   <g id="patch_262">
    <path d="M 34.193437 22.318125 
L 592.193438 22.318125 
" style="fill: none; stroke: #ffffff; stroke-width: 1.25; stroke-linejoin: miter; stroke-linecap: square"/>
   </g>
   <g id="text_11">
    <!-- Variational dequantization -->
    <g style="fill: #262626" transform="translate(234.39375 16.318125) scale(0.12 -0.12)">
     <defs>
      <path id="DejaVuSans-56" d="M 1831 0 
L 50 4666 
L 709 4666 
L 2188 738 
L 3669 4666 
L 4325 4666 
L 2547 0 
L 1831 0 
z
" transform="scale(0.015625)"/>
      <path id="DejaVuSans-61" d="M 2194 1759 
Q 1497 1759 1228 1600 
Q 959 1441 959 1056 
Q 959 750 1161 570 
Q 1363 391 1709 391 
Q 2188 391 2477 730 
Q 2766 1069 2766 1631 
L 2766 1759 
L 2194 1759 
z
M 3341 1997 
L 3341 0 
L 2766 0 
L 2766 531 
Q 2569 213 2275 61 
Q 1981 -91 1556 -91 
Q 1019 -91 701 211 
Q 384 513 384 1019 
Q 384 1609 779 1909 
Q 1175 2209 1959 2209 
L 2766 2209 
L 2766 2266 
Q 2766 2663 2505 2880 
Q 2244 3097 1772 3097 
Q 1472 3097 1187 3025 
Q 903 2953 641 2809 
L 641 3341 
Q 956 3463 1253 3523 
Q 1550 3584 1831 3584 
Q 2591 3584 2966 3190 
Q 3341 2797 3341 1997 
z
" transform="scale(0.015625)"/>
      <path id="DejaVuSans-72" d="M 2631 2963 
Q 2534 3019 2420 3045 
Q 2306 3072 2169 3072 
Q 1681 3072 1420 2755 
Q 1159 2438 1159 1844 
L 1159 0 
L 581 0 
L 581 3500 
L 1159 3500 
L 1159 2956 
Q 1341 3275 1631 3429 
Q 1922 3584 2338 3584 
Q 2397 3584 2469 3576 
Q 2541 3569 2628 3553 
L 2631 2963 
z
" transform="scale(0.015625)"/>
      <path id="DejaVuSans-69" d="M 603 3500 
L 1178 3500 
L 1178 0 
L 603 0 
L 603 3500 
z
M 603 4863 
L 1178 4863 
L 1178 4134 
L 603 4134 
L 603 4863 
z
" transform="scale(0.015625)"/>
      <path id="DejaVuSans-74" d="M 1172 4494 
L 1172 3500 
L 2356 3500 
L 2356 3053 
L 1172 3053 
L 1172 1153 
Q 1172 725 1289 603 
Q 1406 481 1766 481 
L 2356 481 
L 2356 0 
L 1766 0 
Q 1100 0 847 248 
Q 594 497 594 1153 
L 594 3053 
L 172 3053 
L 172 3500 
L 594 3500 
L 594 4494 
L 1172 4494 
z
" transform="scale(0.015625)"/>
      <path id="DejaVuSans-6f" d="M 1959 3097 
Q 1497 3097 1228 2736 
Q 959 2375 959 1747 
Q 959 1119 1226 758 
Q 1494 397 1959 397 
Q 2419 397 2687 759 
Q 2956 1122 2956 1747 
Q 2956 2369 2687 2733 
Q 2419 3097 1959 3097 
z
M 1959 3584 
Q 2709 3584 3137 3096 
Q 3566 2609 3566 1747 
Q 3566 888 3137 398 
Q 2709 -91 1959 -91 
Q 1206 -91 779 398 
Q 353 888 353 1747 
Q 353 2609 779 3096 
Q 1206 3584 1959 3584 
z
" transform="scale(0.015625)"/>
      <path id="DejaVuSans-6e" d="M 3513 2113 
L 3513 0 
L 2938 0 
L 2938 2094 
Q 2938 2591 2744 2837 
Q 2550 3084 2163 3084 
Q 1697 3084 1428 2787 
Q 1159 2491 1159 1978 
L 1159 0 
L 581 0 
L 581 3500 
L 1159 3500 
L 1159 2956 
Q 1366 3272 1645 3428 
Q 1925 3584 2291 3584 
Q 2894 3584 3203 3211 
Q 3513 2838 3513 2113 
z
" transform="scale(0.015625)"/>
      <path id="DejaVuSans-6c" d="M 603 4863 
L 1178 4863 
L 1178 0 
L 603 0 
L 603 4863 
z
" transform="scale(0.015625)"/>
      <path id="DejaVuSans-20" transform="scale(0.015625)"/>
      <path id="DejaVuSans-64" d="M 2906 2969 
L 2906 4863 
L 3481 4863 
L 3481 0 
L 2906 0 
L 2906 525 
Q 2725 213 2448 61 
Q 2172 -91 1784 -91 
Q 1150 -91 751 415 
Q 353 922 353 1747 
Q 353 2572 751 3078 
Q 1150 3584 1784 3584 
Q 2172 3584 2448 3432 
Q 2725 3281 2906 2969 
z
M 947 1747 
Q 947 1113 1208 752 
Q 1469 391 1925 391 
Q 2381 391 2643 752 
Q 2906 1113 2906 1747 
Q 2906 2381 2643 2742 
Q 2381 3103 1925 3103 
Q 1469 3103 1208 2742 
Q 947 2381 947 1747 
z
" transform="scale(0.015625)"/>
      <path id="DejaVuSans-65" d="M 3597 1894 
L 3597 1613 
L 953 1613 
Q 991 1019 1311 708 
Q 1631 397 2203 397 
Q 2534 397 2845 478 
Q 3156 559 3463 722 
L 3463 178 
Q 3153 47 2828 -22 
Q 2503 -91 2169 -91 
Q 1331 -91 842 396 
Q 353 884 353 1716 
Q 353 2575 817 3079 
Q 1281 3584 2069 3584 
Q 2775 3584 3186 3129 
Q 3597 2675 3597 1894 
z
M 3022 2063 
Q 3016 2534 2758 2815 
Q 2500 3097 2075 3097 
Q 1594 3097 1305 2825 
Q 1016 2553 972 2059 
L 3022 2063 
z
" transform="scale(0.015625)"/>
      <path id="DejaVuSans-71" d="M 947 1747 
Q 947 1113 1208 752 
Q 1469 391 1925 391 
Q 2381 391 2643 752 
Q 2906 1113 2906 1747 
Q 2906 2381 2643 2742 
Q 2381 3103 1925 3103 
Q 1469 3103 1208 2742 
Q 947 2381 947 1747 
z
M 2906 525 
Q 2725 213 2448 61 
Q 2172 -91 1784 -91 
Q 1150 -91 751 415 
Q 353 922 353 1747 
Q 353 2572 751 3078 
Q 1150 3584 1784 3584 
Q 2172 3584 2448 3432 
Q 2725 3281 2906 2969 
L 2906 3500 
L 3481 3500 
L 3481 -1331 
L 2906 -1331 
L 2906 525 
z
" transform="scale(0.015625)"/>
      <path id="DejaVuSans-75" d="M 544 1381 
L 544 3500 
L 1119 3500 
L 1119 1403 
Q 1119 906 1312 657 
Q 1506 409 1894 409 
Q 2359 409 2629 706 
Q 2900 1003 2900 1516 
L 2900 3500 
L 3475 3500 
L 3475 0 
L 2900 0 
L 2900 538 
Q 2691 219 2414 64 
Q 2138 -91 1772 -91 
Q 1169 -91 856 284 
Q 544 659 544 1381 
z
M 1991 3584 
L 1991 3584 
z
" transform="scale(0.015625)"/>
      <path id="DejaVuSans-7a" d="M 353 3500 
L 3084 3500 
L 3084 2975 
L 922 459 
L 3084 459 
L 3084 0 
L 275 0 
L 275 525 
L 2438 3041 
L 353 3041 
L 353 3500 
z
" transform="scale(0.015625)"/>
     </defs>
     <use xlink:href="#DejaVuSans-56"/>
     <use xlink:href="#DejaVuSans-61" x="60.658203"/>
     <use xlink:href="#DejaVuSans-72" x="121.9375"/>
     <use xlink:href="#DejaVuSans-69" x="163.050781"/>
     <use xlink:href="#DejaVuSans-61" x="190.833984"/>
     <use xlink:href="#DejaVuSans-74" x="252.113281"/>
     <use xlink:href="#DejaVuSans-69" x="291.322266"/>
     <use xlink:href="#DejaVuSans-6f" x="319.105469"/>
     <use xlink:href="#DejaVuSans-6e" x="380.287109"/>
     <use xlink:href="#DejaVuSans-61" x="443.666016"/>
     <use xlink:href="#DejaVuSans-6c" x="504.945312"/>
     <use xlink:href="#DejaVuSans-20" x="532.728516"/>
     <use xlink:href="#DejaVuSans-64" x="564.515625"/>
     <use xlink:href="#DejaVuSans-65" x="627.992188"/>
     <use xlink:href="#DejaVuSans-71" x="689.515625"/>
     <use xlink:href="#DejaVuSans-75" x="752.992188"/>
     <use xlink:href="#DejaVuSans-61" x="816.371094"/>
     <use xlink:href="#DejaVuSans-6e" x="877.650391"/>
     <use xlink:href="#DejaVuSans-74" x="941.029297"/>
     <use xlink:href="#DejaVuSans-69" x="980.238281"/>
     <use xlink:href="#DejaVuSans-7a" x="1008.021484"/>
     <use xlink:href="#DejaVuSans-61" x="1060.511719"/>
     <use xlink:href="#DejaVuSans-74" x="1121.791016"/>
     <use xlink:href="#DejaVuSans-69" x="1161"/>
     <use xlink:href="#DejaVuSans-6f" x="1188.783203"/>
     <use xlink:href="#DejaVuSans-6e" x="1249.964844"/>
    </g>
   </g>
  </g>
 </g>
 <defs>
  <clipPath id="p7e73fb8288">
   <rect x="34.193438" y="22.318125" width="558" height="166.32"/>
  </clipPath>
 </defs>
</svg>
